<svg id="Capa_1" enable-background="new 0 0 512 512" height="512" viewBox="0 0 512 512" width="512" xmlns="http://www.w3.org/2000/svg"><g><g><path d="m485.966 370.046v66.968c14.952-3.879 26.034-17.339 26.034-33.489 0-16.158-11.09-29.609-26.034-33.479z"/><path d="m208.532 408.593-22.615-13.564 14.423 72.097-35.458 35.45-35.458-35.449 14.423-72.097-40.535 24.316 2.525-49.43c-27.205 18.805-45.091 50.176-45.091 85.678v52.068h182.237v-55.105c-18.666-6.631-32.473-23.57-34.451-43.964z"/><path d="m122.316 387.705 21.981-13.191-10.9-18.163c-3.298 1.05-6.517 2.265-9.667 3.619z"/><path d="m178.488 352.421c-4.478-.581-9.008-.963-13.607-.963-4.617 0-9.129.408-13.581.989l9.815 16.367h7.524z"/><path d="m164.881 478.034 16.61-16.618-15.048-75.247h-3.124l-15.047 75.247z"/><path d="m0 203.932c0 14.353 11.681 26.034 26.034 26.034h8.678v-52.068h-8.678c-14.353 0-26.034 11.681-26.034 26.034z"/><path d="m69.424 73.763h17.356c0 38.279 31.145 69.424 69.424 69.424h2.317c8.869 0 17.547-1.666 25.791-4.964l.547-.217c-17.556-15.889-28.655-38.764-28.655-64.243h17.356c0 38.279 31.145 69.424 69.424 69.424h2.317c8.869 0 17.547-1.666 25.791-4.964l8.721-3.489c-22.407-11.759-36.829-35.059-36.829-60.971h17.356c0 22.207 14.162 41.854 35.233 48.874l10.908 3.636c3.445 1.154 5.823 4.339 5.936 7.975.104 3.636-2.074 6.96-5.458 8.314l-11.906 4.764v13.217h8.678c5.962 0 11.646 1.215 16.818 3.402 5.936-14.102 9.216-29.305 9.216-44.622 0-63.401-51.582-114.983-114.983-114.983h-67.254c-24.446 0-47.807 11.681-62.481 31.241l-2.603 3.471h-4.339c-43.072-.001-78.105 35.04-78.105 78.101v14.466c0 11.542 2.664 22.84 7.55 33.219 5.632-2.681 11.845-4.296 18.484-4.296h8.678v-8.678c0-23.474 18.77-42.539 42.071-43.26-4.704-10.673-7.359-22.449-7.359-34.841z"/><path d="m147.525 334.102h34.712c52.632 0 95.458-42.826 95.458-95.458v-84.376l-.174.069c-10.292 4.113-21.131 6.205-32.221 6.205h-2.317c-14.987 0-29.097-3.818-41.411-10.535l-10.821 4.33c-10.301 4.113-21.14 6.205-32.23 6.205h-2.317c-28.299 0-53.404-13.685-69.259-34.712h-8.843c-14.353 0-26.034 11.681-26.034 26.034v86.78c0 52.632 42.826 95.458 95.457 95.458zm78.102-156.204c9.589 0 17.356 7.767 17.356 17.356s-7.767 17.356-17.356 17.356-17.356-7.767-17.356-17.356 7.767-17.356 17.356-17.356zm-17.356 78.102v8.678c0 23.96-19.43 43.39-43.39 43.39s-43.39-19.43-43.39-43.39v-8.678zm-104.135-78.102c9.589 0 17.356 7.767 17.356 17.356s-7.767 17.356-17.356 17.356-17.356-7.767-17.356-17.356 7.766-17.356 17.356-17.356z"/><path d="m210.267 389.398c2.23-7.888 6.274-15.004 11.655-20.905-7.992-5.268-16.566-9.303-25.557-12.149l-10.9 18.163z"/><path d="m451.254 316.746h17.356v173.559h-17.356z"/><path d="m260.339 507.661h8.678 8.678v-52.068h-17.356z"/><path d="m329.763 203.932c0-14.353-11.681-26.034-26.034-26.034h-8.678v52.068h8.678c14.353 0 26.034-11.68 26.034-26.034z"/><path d="m312.407 429.854c42.93 1.484 84.706 13.798 121.492 36.135v-124.928c-36.786 22.346-78.562 34.651-121.492 36.135z"/><path d="m260.339 368.814c-19.144 0-34.712 15.568-34.712 34.712s15.568 34.712 34.712 34.712h34.721l-.009-69.424z"/><path d="m477.288 4.339h-104.135c-4.79 0-8.678 3.896-8.678 8.678v34.712c0 4.782 3.888 8.678 8.678 8.678h26.034v31.119c0 2.933 4.087 4.608 6.127 2.543l33.67-33.662h38.305c4.79 0 8.678-3.896 8.678-8.678v-34.712c-.001-4.782-3.889-8.678-8.679-8.678zm-78.102 34.712h-17.356v-17.356h17.356zm34.712 0h-17.356v-17.356h17.356zm34.712 0h-17.356v-17.356h17.356z"/></g></g></svg>