<?xml version="1.0"?>
<svg xmlns="http://www.w3.org/2000/svg" xmlns:xlink="http://www.w3.org/1999/xlink" xmlns:svgjs="http://svgjs.com/svgjs" version="1.1" width="512" height="512" x="0" y="0" viewBox="0 0 512 512" style="enable-background:new 0 0 512 512" xml:space="preserve" class=""><g><defs xmlns="http://www.w3.org/2000/svg"><linearGradient id="linear-gradient" x1="256" y1="496" x2="256" y2="16.016" gradientUnits="userSpaceOnUse"><stop stop-opacity="1" stop-color="#e1e1e1" offset="1"/><stop stop-opacity="1" stop-color="#ededed" offset="1"/></linearGradient></defs><path xmlns="http://www.w3.org/2000/svg" d="M77.657,66.343a8,8,0,0,0-11.314,0l-24,24a8,8,0,0,0,0,11.314L116.686,176H96a8,8,0,0,0-8,8v32a8,8,0,0,0,8,8v40a72.081,72.081,0,0,0,72,72h44.686l-28.374,28.373a71.926,71.926,0,1,0,29.319,41.31L268.9,350.42a39.816,39.816,0,0,0,22.21,0l71.8,71.8a56.046,56.046,0,1,0,35.315-35.315L347.314,336H392a72.081,72.081,0,0,0,72-72V224a8,8,0,0,0,8-8V184a8,8,0,0,0-8-8h-3.849c-18.713-28.083-12.372-62.095-12.306-62.431a8,8,0,0,0-5.905-9.33C385.062,90.02,384.017,42.005,384,40a8,8,0,0,0-10.809-7.49C314.109,54.662,261.167,17.857,260.65,17.49a7.986,7.986,0,0,0-6.586-1.232l0-.019-32,8a8,8,0,0,0-5.8,9.8L253.623,176H187.314ZM249.489,286.175,91.314,128,104,115.314,264.025,275.339A40.2,40.2,0,0,0,249.489,286.175ZM72,83.313,92.686,104,80,116.686,59.313,96ZM104,192h28.686l16,16H104Zm64,128a56.063,56.063,0,0,1-56-56V224h52.686L241.58,300.9a39.8,39.8,0,0,0-1.42,7.63L228.686,320ZM144,480a56,56,0,1,1,56-56A56.063,56.063,0,0,1,144,480Zm63.18-90.495a72.381,72.381,0,0,0-10.674-14.7l46.833-46.833a40.208,40.208,0,0,0,10.836,14.535ZM256,312a24,24,0,1,1,24,24A24.028,24.028,0,0,1,256,312ZM456,440a40,40,0,1,1-40-40A40.045,40.045,0,0,1,456,440Zm-85.4-32.719-64.77-64.77a40.208,40.208,0,0,0,10.836-14.535l66.62,66.619A56.472,56.472,0,0,0,370.6,407.281ZM448,264a56.063,56.063,0,0,1-56,56H331.314L319.84,308.525a40.055,40.055,0,0,0-36.365-36.365L235.314,224H448Zm-6.384-88H329.889l100.837-50.419C430.44,138.345,432.105,157.421,441.616,176Zm-22.243-62.631L315.551,165.28,372.41,62.935a85.479,85.479,0,0,0,4.435,10.643C383.352,86.592,395.817,102.856,419.373,113.369ZM359.6,53.042,298.847,162.4,268.3,40.223C287.508,49.533,321.13,61.02,359.6,53.042ZM233.8,37.8l16.381-4.1L285.754,176H270.167ZM456,192v16H219.314l-16-16ZM416,464a24,24,0,1,0-24-24A24.028,24.028,0,0,0,416,464Zm0-32a8,8,0,1,1-8,8A8.009,8.009,0,0,1,416,432ZM144,384a40,40,0,1,0,40,40A40.045,40.045,0,0,0,144,384Zm0,64a24,24,0,1,1,24-24A24.028,24.028,0,0,1,144,448Z" style="fill:url(#linear-gradient)" fill=""/></g></svg>
