<?xml version="1.0"?>
<svg xmlns="http://www.w3.org/2000/svg" xmlns:xlink="http://www.w3.org/1999/xlink" xmlns:svgjs="http://svgjs.com/svgjs" version="1.1" width="512" height="512" x="0" y="0" viewBox="0 0 512 512" style="enable-background:new 0 0 512 512" xml:space="preserve" class=""><g><g xmlns="http://www.w3.org/2000/svg" id="solid"><path d="M282.35,304.349a76.751,76.751,0,0,1-52.7,0s-6.168,18.422-6.216,18.546S201.3,371.876,201.3,371.876q1.6,2.049,3.164,4.124h12.912A62.157,62.157,0,0,1,256,389.319,62.157,62.157,0,0,1,294.627,376H305a8,8,0,0,1,2.283.335q1.695-2.241,3.42-4.459s-22.25-49.218-22.292-49.346Z" fill="#c4c2c2" data-original="#000000" style=""/><path d="M189.757,82.416a53.289,53.289,0,0,0-5.369,17.719l13.551-1.355Z" fill="#c4c2c2" data-original="#000000" style=""/><path d="M318.162,213.014H289.838a20.054,20.054,0,0,1-19.612-16.078l-1.585-7.922h-4.649a7.942,7.942,0,0,1-.231,1.94l-6.24,24.962,1.167.416a8,8,0,1,1-5.376,15.07l-8-2.853a8,8,0,0,1-5.073-9.476l7.515-30.059h-4.395l-1.585,7.923a20.054,20.054,0,0,1-19.612,16.077H193.838a19.877,19.877,0,0,1-8.52-1.923A140.777,140.777,0,0,0,202.9,262.384a61.349,61.349,0,0,0,106.208,0,140.777,140.777,0,0,0,17.578-51.293A19.877,19.877,0,0,1,318.162,213.014ZM264,280H248a8,8,0,0,1,0-16h16a8,8,0,0,1,0,16Zm8-24H240a8,8,0,0,1,0-16h32a8,8,0,0,1,0,16Z" fill="#c4c2c2" data-original="#000000" style=""/><path d="M228.415,95.732,210.691,60.284a53.231,53.231,0,0,0-6.57,4.479c-1.285,1.028-2.51,2.112-3.683,3.238l14.537,29.075Z" fill="#c4c2c2" data-original="#000000" style=""/><path d="M225.362,157.014a20.008,20.008,0,0,1,19.6,16h22.078a20.008,20.008,0,0,1,19.6-16h34.724A20.037,20.037,0,0,1,328,158.143V116.254l-72-7.2-72,7.2v41.889a20.037,20.037,0,0,1,6.638-1.129Z" fill="#c4c2c2" data-original="#000000" style=""/><path d="M297.024,97.076,311.562,68c-1.173-1.126-2.4-2.21-3.683-3.238a53.231,53.231,0,0,0-6.57-4.479L283.585,95.732Z" fill="#c4c2c2" data-original="#000000" style=""/><path d="M322.243,82.416,314.061,98.78l13.551,1.355A53.289,53.289,0,0,0,322.243,82.416Z" fill="#c4c2c2" data-original="#000000" style=""/><path d="M248,93.773V53.014H237.612a53.419,53.419,0,0,0-11.98,1.376l19.82,39.638Z" fill="#c4c2c2" data-original="#000000" style=""/><path d="M286.368,54.39a53.419,53.419,0,0,0-11.98-1.376H264v40.76l2.548.255Z" fill="#c4c2c2" data-original="#000000" style=""/><path d="M360,185.014a20.036,20.036,0,0,0-16-19.6v39.2A20.035,20.035,0,0,0,360,185.014Z" fill="#c4c2c2" data-original="#000000" style=""/><path d="M193.838,197.014h28.324a4.011,4.011,0,0,0,3.922-3.215l3.2-16a4,4,0,0,0-3.923-4.784H190.638a4,4,0,0,0-3.923,4.785l3.2,16A4.011,4.011,0,0,0,193.838,197.014Z" fill="#c4c2c2" data-original="#000000" style=""/><path d="M185.867,378.154l-.126-.158a8,8,0,0,1-1.029-8.282L198.028,340.3A101.991,101.991,0,0,0,183.7,354a7.885,7.885,0,0,1-.955,1.114,102.027,102.027,0,0,0-21.754,44.883l33.978,13.592a8,8,0,0,1,4.618,9.958l-6.078,18.235L226.446,464h10.568l-.407-1.26A368.049,368.049,0,0,0,185.867,378.154Z" fill="#c4c2c2" data-original="#000000" style=""/><path d="M294.627,392a46.321,46.321,0,0,0-32.97,13.656,8,8,0,0,1-11.314,0A46.321,46.321,0,0,0,217.373,392h-1.406a384.026,384.026,0,0,1,35.492,64.777q.147.342.261.7L253.826,464h4.348l2.106-6.527q.114-.354.261-.7A384.085,384.085,0,0,1,296.033,392Z" fill="#c4c2c2" data-original="#000000" style=""/><path d="M358.4,371.551a117.47,117.47,0,0,1,9.517,32.332,8,8,0,0,1-4.948,8.558l-33.228,13.291,5.927,19.995a8,8,0,0,1-3.554,9.133L316.883,464H360V432a8,8,0,0,1,16,0v32h39.033A137.706,137.706,0,0,0,358.4,371.551Z" fill="#c4c2c2" data-original="#000000" style=""/><path d="M312.33,423.287a8,8,0,0,1,4.7-9.7l33.978-13.592A102.165,102.165,0,0,0,313.972,340.3l13.316,29.414A8,8,0,0,1,326.259,378l-.114.144a368.056,368.056,0,0,0-50.752,84.6l-.407,1.26h10.8l32.784-19.67Z" fill="#c4c2c2" data-original="#000000" style=""/><path d="M176.411,442.483l5.614-16.843-33-13.2a8,8,0,0,1-4.948-8.558,117.523,117.523,0,0,1,9.531-32.365A137.454,137.454,0,0,0,96.966,464H136V432a8,8,0,0,1,16,0v32h45.838l-18.312-12.354A8,8,0,0,1,176.411,442.483Z" fill="#c4c2c2" data-original="#000000" style=""/><path d="M289.838,197.014h28.324a4.011,4.011,0,0,0,3.922-3.215l3.2-16a4,4,0,0,0-3.923-4.784H286.638a4,4,0,0,0-3.923,4.785l3.2,16A4.011,4.011,0,0,0,289.838,197.014Z" fill="#c4c2c2" data-original="#000000" style=""/><path d="M168,204.612v-39.2a20,20,0,0,0,0,39.2Z" fill="#c4c2c2" data-original="#000000" style=""/><path d="M392.889,96l-3.4,5.105a47.5,47.5,0,0,1-24.5,18.716l-3.2,1.068h0a47.5,47.5,0,0,1,27.466,23.821l3.645,7.29,3.645-7.29A47.5,47.5,0,0,1,424,120.889h0l-3.2-1.068a47.505,47.505,0,0,1-24.5-18.716Z" fill="#c4c2c2" data-original="#000000" style=""/></g></g></svg>
