<?xml version="1.0"?>
<svg xmlns="http://www.w3.org/2000/svg" xmlns:xlink="http://www.w3.org/1999/xlink" xmlns:svgjs="http://svgjs.com/svgjs" version="1.1" width="512" height="512" x="0" y="0" viewBox="0 0 512 512" style="enable-background:new 0 0 512 512" xml:space="preserve" class=""><g><g xmlns="http://www.w3.org/2000/svg"><circle cx="376" cy="346" r="15" fill="#c4c2c2" data-original="#000000" style=""/><path d="m481 241h-90v-90h-210v90h-60v-241h-30v241h-60v271h450zm-270-60h150v60h-150zm90 270h-210v-30h210zm0-60h-210v-30h210zm0-60h-210v-30h210zm60 120h-30v-30h30zm60 0h-30v-30h30zm-45-60c-24.814 0-45-20.186-45-45s20.186-45 45-45 45 20.186 45 45-20.186 45-45 45z" fill="#c4c2c2" data-original="#000000" style=""/></g></g></svg>
