<svg id="ae8ecc88-b143-46e5-bf91-e4d03dacd08d" data-name="Calque 1" xmlns="http://www.w3.org/2000/svg" viewBox="0 0 224.72 224.72"><title>resume</title><path d="M181.72,74.29a4.4,4.4,0,0,0,4.39-4.39V22.17A13.19,13.19,0,0,0,172.94,9H13.17A13.18,13.18,0,0,0,0,22.17V220.56a13.17,13.17,0,0,0,13.16,13.16H172.94a13.18,13.18,0,0,0,13.17-13.16V188.22a4.39,4.39,0,0,0-8.78,0v32.34a4.4,4.4,0,0,1-4.39,4.39H13.17a4.39,4.39,0,0,1-4.38-4.39V22.17a4.39,4.39,0,0,1,4.38-4.39H172.94a4.4,4.4,0,0,1,4.39,4.39V69.9A4.39,4.39,0,0,0,181.72,74.29Z" transform="translate(-0.01 -9)"/><path d="M93.06,32.7a40.36,40.36,0,0,0-27.71,69.73,4.81,4.81,0,0,0,.47.44,40.32,40.32,0,0,0,54.47,0,3.89,3.89,0,0,0,.47-.44A40.36,40.36,0,0,0,93.06,32.7Zm0,72A31.47,31.47,0,0,1,74,98.25a21.95,21.95,0,0,1,38.18,0A31.49,31.49,0,0,1,93.06,104.68ZM86,71.33V68.47a7,7,0,0,1,14,0v2.86a7,7,0,0,1-14,0Zm32.46,20.49A30.41,30.41,0,0,0,105.56,81a15.78,15.78,0,0,0,3.3-9.65V68.47a15.8,15.8,0,0,0-31.6,0v2.86A15.72,15.72,0,0,0,80.56,81,30.3,30.3,0,0,0,67.63,91.82a31.6,31.6,0,1,1,50.86,0Z" transform="translate(-0.01 -9)"/><path d="M116.76,201.24H93.06a4.39,4.39,0,0,0,0,8.78h23.7a4.39,4.39,0,1,0,0-8.78Z" transform="translate(-0.01 -9)"/><path d="M116.76,176.67H54.43a4.39,4.39,0,1,0,0,8.77h62.33a4.39,4.39,0,1,0,0-8.77Z" transform="translate(-0.01 -9)"/><path d="M116.76,152.09H54.43a4.39,4.39,0,1,0,0,8.77h62.33a4.39,4.39,0,1,0,0-8.77Z" transform="translate(-0.01 -9)"/><path d="M38.79,128.79a4.38,4.38,0,1,0,1.29,3.11A4.46,4.46,0,0,0,38.79,128.79Z" transform="translate(-0.01 -9)"/><path d="M38.79,153.37a4.38,4.38,0,1,0,1.29,3.11A4.46,4.46,0,0,0,38.79,153.37Z" transform="translate(-0.01 -9)"/><path d="M38.79,178a4.38,4.38,0,1,0,1.29,3.1A4.46,4.46,0,0,0,38.79,178Z" transform="translate(-0.01 -9)"/><path d="M116.76,127.51H54.43a4.39,4.39,0,0,0,0,8.78h62.33a4.39,4.39,0,0,0,0-8.78Z" transform="translate(-0.01 -9)"/><path d="M215.51,66.2A18.43,18.43,0,0,0,190.33,73L135.1,168.61a4.21,4.21,0,0,0-.56,1.71l-3.89,34.83a4.39,4.39,0,0,0,2.16,4.29,4.44,4.44,0,0,0,2.2.58,4.35,4.35,0,0,0,2.6-.85l28.22-20.78a4.67,4.67,0,0,0,1.2-1.34l55.23-95.67A18.46,18.46,0,0,0,215.51,66.2Zm-75,130,2-18.18,12.71,7.33Zm21.14-17.29-16.73-9.66,44.33-76.77,16.72,9.66Zm53-91.87-4.33,7.5-16.72-9.66,4.32-7.49A9.66,9.66,0,0,1,214.66,87Z" transform="translate(-0.01 -9)"/></svg>