<svg id="Capa_1" enable-background="new 0 0 512 512" height="512" viewBox="0 0 512 512" width="512" xmlns="http://www.w3.org/2000/svg"><g><path d="m474.48 141.11h-126.26v-60.31c0-20.688-16.832-37.52-37.52-37.52h-170.41c-4.142 0-7.5 3.358-7.5 7.5s3.358 7.5 7.5 7.5h170.41c12.417 0 22.52 10.103 22.52 22.52v67.81 38.71c0 4.142 3.358 7.5 7.5 7.5s7.5-3.358 7.5-7.5v-31.21h126.26c12.417 0 22.52 10.103 22.52 22.52v206.71c0 12.417-10.103 22.52-22.52 22.52h-25.02c-4.142 0-7.5 3.358-7.5 7.5v31.408l-53.323-37.541c-1.264-.89-2.771-1.367-4.317-1.367h-83.54c-4.142 0-7.5 3.358-7.5 7.5s3.358 7.5 7.5 7.5h81.165l63.198 44.493c1.288.907 2.799 1.367 4.318 1.367 1.181 0 2.367-.279 3.454-.843 2.485-1.29 4.045-3.857 4.045-6.657v-38.36h17.52c20.688 0 37.52-16.832 37.52-37.52v-206.71c0-20.689-16.832-37.52-37.52-37.52z"/><path d="m110.758 283.525h.021c12.745 0 23.114-10.369 23.114-23.114v-46.33h5.921l60.565 30.283c3.013 8.88 11.423 15.29 21.308 15.29h.02c12.407 0 22.5-10.093 22.5-22.5v-126.248c0-12.407-10.093-22.5-22.52-22.5-9.885 0-18.295 6.41-21.308 15.29l-60.565 30.283h-43.824c-22.073 0-40.03 17.958-40.03 40.074 0 19.21 13.605 35.298 31.684 39.148v47.211c0 12.744 10.369 23.113 23.114 23.113zm8.136-23.114c0 4.474-3.64 8.114-8.114 8.114h-.021c-4.474 0-8.114-3.64-8.114-8.114v-46.33h16.25v46.33zm102.814-157.005c4.136 0 7.5 3.364 7.5 7.5v126.249c0 4.136-3.364 7.5-7.5 7.5h-.02c-4.136 0-7.5-3.364-7.5-7.5v-126.249c0-4.136 3.364-7.5 7.52-7.5zm-22.52 123.592-50.104-25.052v-55.833l50.104-25.052zm-128.228-52.99c0-13.802 11.229-25.03 25.03-25.03h38.094v50.104h-38.094c-13.802 0-25.03-11.229-25.03-25.074z"/><path d="m294.407 107.168c-2.929-2.929-7.678-2.929-10.606 0l-24.305 24.305c-2.929 2.929-2.929 7.678 0 10.606 1.464 1.464 3.384 2.197 5.303 2.197s3.839-.732 5.303-2.197l24.305-24.305c2.929-2.928 2.929-7.677 0-10.606z"/><path d="m259.496 217.147 24.305 24.305c1.464 1.464 3.384 2.197 5.303 2.197s3.839-.732 5.303-2.197c2.929-2.929 2.929-7.678 0-10.606l-24.305-24.305c-2.929-2.929-7.678-2.929-10.606 0-2.93 2.929-2.93 7.678 0 10.606z"/><path d="m264.799 166.53c-4.142 0-7.5 3.358-7.5 7.5s3.358 7.5 7.5 7.5h24.305c4.142 0 7.5-3.358 7.5-7.5s-3.358-7.5-7.5-7.5z"/><path d="m457.471 276.458c0-13.516-10.996-24.511-24.511-24.511s-24.511 10.996-24.511 24.511 10.996 24.511 24.511 24.511 24.511-10.995 24.511-24.511zm-34.023 0c0-5.245 4.267-9.511 9.511-9.511s9.511 4.267 9.511 9.511-4.267 9.511-9.511 9.511-9.511-4.266-9.511-9.511z"/><path d="m268.1 407.86h-66.8c-12.417 0-22.52-10.103-22.52-22.52v-60.31h131.92c12.299 0 24.218-6.339 31.101-16.535 2.112-3.121 3.734-6.584 4.822-10.198 3.338 1.705 7.112 2.674 11.11 2.674 13.516 0 24.511-10.996 24.511-24.511s-10.996-24.511-24.511-24.511c-3.401 0-6.642.698-9.589 1.955.028-9.027.054-20.149.077-33.881.007-4.142-3.345-7.505-7.488-7.512-.004 0-.008 0-.013 0-4.136 0-7.493 3.35-7.5 7.487-.044 26.578-.164 66.867-.315 71.274-.529 3.176-1.715 6.14-3.531 8.823-4.137 6.128-11.292 9.936-18.673 9.936h-139.324c-.033 0-.161 0-.193 0h-43.514c-1.546 0-3.054.478-4.318 1.368l-53.312 37.538v-31.407c0-4.142-3.358-7.5-7.5-7.5h-25.02c-12.417 0-22.52-10.103-22.52-22.52v-206.71c0-12.417 10.103-22.52 22.52-22.52h70.08c4.142 0 7.5-3.358 7.5-7.5s-3.358-7.5-7.5-7.5h-70.08c-20.688 0-37.52 16.831-37.52 37.52v206.71c0 20.688 16.832 37.52 37.52 37.52h17.52v38.36c0 2.8 1.56 5.367 4.046 6.657 1.087.564 2.272.843 3.454.843 1.519 0 3.031-.461 4.318-1.368l63.188-44.493h33.734v60.31c0 20.688 16.832 37.52 37.52 37.52h66.8c4.142 0 7.5-3.358 7.5-7.5s-3.358-7.499-7.5-7.499zm89.632-140.913c5.245 0 9.511 4.267 9.511 9.511s-4.267 9.511-9.511 9.511-9.511-4.267-9.511-9.511 4.267-9.511 9.511-9.511z"/></g></svg>