<?xml version="1.0"?>
<svg xmlns="http://www.w3.org/2000/svg" xmlns:xlink="http://www.w3.org/1999/xlink" xmlns:svgjs="http://svgjs.com/svgjs" version="1.1" width="512" height="512" x="0" y="0" viewBox="0 0 512 512" style="enable-background:new 0 0 512 512" xml:space="preserve" class=""><g><defs xmlns="http://www.w3.org/2000/svg"><linearGradient id="linear-gradient" x1="126.834" y1="410.148" x2="475.781" y2="61.2" gradientUnits="userSpaceOnUse"><stop stop-opacity="1" stop-color="#29a3dc" offset="0"/><stop stop-opacity="1" stop-color="#04286e" offset="1"/></linearGradient></defs><g xmlns="http://www.w3.org/2000/svg" id="gradient"><path d="M495.61,85.507C492.052,72.8,478.654,64.29,455.761,60.154a31.992,31.992,0,0,0-63.2-2.083c-16.135,1.022-33.625,2.983-52.113,5.825a127.918,127.918,0,0,0-206.822,58.55C97.428,137.777,67.6,154.012,47.2,169.5c-24.259,18.418-34.457,35.262-30.312,50.063,3.084,11.015,13.605,18.894,31.259,23.477a32,32,0,0,0,62.963,4.429c14.671-.635,30.618-2.1,47.473-4.355A128.658,128.658,0,0,0,181.5,264.1L169.216,283.76A8,8,0,0,0,176,296h32v32H184a8,8,0,0,0-8,8V456a8,8,0,0,0,8,8h24v24a8,8,0,0,0,8,8H360a8,8,0,0,0,8-8V368a8,8,0,0,0-8-8H336V336a8,8,0,0,0-8-8H304V296h32a8,8,0,0,0,6.784-12.24L330.5,264.1a127.158,127.158,0,0,0,51.759-82.917,513.217,513.217,0,0,0,57.3-28.565C482.187,127.5,501.045,104.917,495.61,85.507ZM424,48a16,16,0,1,1-16,16A16.019,16.019,0,0,1,424,48ZM159.07,103.941A7.924,7.924,0,0,0,160,104h52.5a329.4,329.4,0,0,0-4.4,48H144.289A111.2,111.2,0,0,1,159.07,103.941ZM256,48c7.534,0,17.035,14.546,23.721,40H232.279C238.965,62.546,248.466,48,256,48Zm85.717,40H296.233c-1.3-5.409-2.753-10.563-4.359-15.383a110.2,110.2,0,0,0-9.461-21.463A112.169,112.169,0,0,1,341.717,88Zm-58.462,16a305.166,305.166,0,0,1,4.654,48H224.091a305.166,305.166,0,0,1,4.654-48Zm-75.163,64a333.655,333.655,0,0,0,4.222,46.8l-.748,1.2H160a7.97,7.97,0,0,0-1.032.074A111.467,111.467,0,0,1,144.289,168Zm17.546,25.484c-.819-8.274-1.342-16.826-1.539-25.484h17.467ZM287.9,168c-.2,8.658-.721,17.21-1.54,25.484L270.434,168Zm16.006,0h63.8q-.072,1.017-.161,2.03c-20.186,8.359-42.112,16.335-65.14,23.667C303.2,185.324,303.718,176.709,303.908,168Zm0-16a329.4,329.4,0,0,0-4.4-48H352a7.924,7.924,0,0,0,.93-.059A111.2,111.2,0,0,1,367.711,152ZM229.587,51.154a110.2,110.2,0,0,0-9.461,21.463c-1.606,4.82-3.056,9.974-4.359,15.383H170.283A112.169,112.169,0,0,1,229.587,51.154ZM80,256a16,16,0,1,1,16-16.076h0v0c0,.024,0,.047,0,.071A16.019,16.019,0,0,1,80,256Zm30.835-24.535a31.989,31.989,0,0,0-60.137-4.3c-10.46-2.934-17.072-7.162-18.4-11.912-3.161-11.288,20.587-39.6,97.01-73.494a128.461,128.461,0,0,0,18.383,86.615C134.7,229.917,122.359,230.955,110.835,231.465Zm67.014,8.8q10.256-1.659,20.846-3.673L190,250.5A113.135,113.135,0,0,1,177.849,240.265ZM352,376V480H224V464H328a8,8,0,0,0,8-8V376ZM224.963,448l31.193-22.28,19.406,12.936a8,8,0,0,0,8.876,0L320,414.948V448ZM320,395.719l-40,26.666-19.562-13.041a8,8,0,0,0-9.087.146L197.437,448H192V344H320ZM296,280a8,8,0,0,0-8,8v40H224V288a8,8,0,0,0-8-8H190.434L256,175.1,321.566,280Zm26-29.5L310.434,232h31.428A112.5,112.5,0,0,1,322,250.5Zm31.036-34.424A7.97,7.97,0,0,0,352,216H300.434l-.748-1.2c.2-1.221.416-2.428.605-3.669,22.457-6.961,43.988-14.549,64.044-22.537A110.972,110.972,0,0,1,353.032,216.074ZM471.147,109.055c-8.376,9.106-22.108,19.405-39.713,29.78a477.266,477.266,0,0,1-47.481,24.15c.022-.994.047-1.987.047-2.985a127.42,127.42,0,0,0-29.752-81.948c13.853-1.889,27.031-3.236,39.373-4.016a31.99,31.99,0,0,0,60.022,2c15.138,2.855,24.9,7.856,26.559,13.786C481.5,94.462,478.286,101.292,471.147,109.055ZM256,384a24,24,0,1,0,24-24A24.028,24.028,0,0,0,256,384Zm32,0a8,8,0,1,1-8-8A8.009,8.009,0,0,1,288,384Z" style="fill:url(#linear-gradient)" fill=""/></g></g></svg>
