<svg id="Layer_1" enable-background="new 0 0 512 512" height="512" viewBox="0 0 512 512" width="512" xmlns="http://www.w3.org/2000/svg" xmlns:xlink="http://www.w3.org/1999/xlink"><linearGradient id="lg1"><stop offset=".322" stop-color="#a163f5"/><stop offset=".466" stop-color="#b074ee"/><stop offset=".752" stop-color="#d8a1dd"/><stop offset=".898" stop-color="#efbad3"/></linearGradient><linearGradient id="SVGID_1_" gradientTransform="matrix(1 0 0 -1 0 514)" gradientUnits="userSpaceOnUse" x1="380.841" x2="380.841" xlink:href="#lg1" y1="58" y2="441.38"/><linearGradient id="SVGID_2_" gradientTransform="matrix(1 0 0 -1 0 514)" gradientUnits="userSpaceOnUse" x1="457.141" x2="457.141" xlink:href="#lg1" y1="58" y2="441.38"/><linearGradient id="SVGID_3_" gradientTransform="matrix(1 0 0 -1 0 514)" gradientUnits="userSpaceOnUse" x1="423.47" x2="423.47" xlink:href="#lg1" y1="58" y2="441.38"/><linearGradient id="SVGID_4_" gradientTransform="matrix(1 0 0 -1 0 514)" gradientUnits="userSpaceOnUse" x1="370.436" x2="370.436" xlink:href="#lg1" y1="58" y2="441.38"/><linearGradient id="SVGID_5_" gradientTransform="matrix(1 0 0 -1 0 514)" gradientUnits="userSpaceOnUse" x1="447.675" x2="447.675" xlink:href="#lg1" y1="58" y2="441.38"/><linearGradient id="SVGID_6_" gradientTransform="matrix(1 0 0 -1 0 514)" gradientUnits="userSpaceOnUse" x1="396.247" x2="396.247" xlink:href="#lg1" y1="58" y2="441.38"/><linearGradient id="SVGID_7_" gradientTransform="matrix(1 0 0 -1 0 514)" gradientUnits="userSpaceOnUse" x1="352.686" x2="352.686" xlink:href="#lg1" y1="58" y2="441.38"/><linearGradient id="SVGID_13_" gradientTransform="matrix(1 0 0 -1 0 514)" gradientUnits="userSpaceOnUse" x1="370.44" x2="370.44" xlink:href="#lg1" y1="58" y2="441.38"/><linearGradient id="SVGID_14_" gradientTransform="matrix(1 0 0 -1 0 514)" gradientUnits="userSpaceOnUse" x1="187.205" x2="187.205" xlink:href="#lg1" y1="58" y2="441.38"/><linearGradient id="SVGID_15_" gradientTransform="matrix(1 0 0 -1 0 514)" gradientUnits="userSpaceOnUse" x1="111.139" x2="111.139" xlink:href="#lg1" y1="58" y2="441.38"/><linearGradient id="SVGID_16_" gradientTransform="matrix(1 0 0 -1 0 514)" gradientUnits="userSpaceOnUse" x1="149.173" x2="149.173" xlink:href="#lg1" y1="58" y2="441.38"/><linearGradient id="SVGID_17_" gradientTransform="matrix(1 0 0 -1 0 514)" gradientUnits="userSpaceOnUse" x1="35" x2="35" xlink:href="#lg1" y1="58" y2="441.38"/><linearGradient id="SVGID_19_" gradientUnits="userSpaceOnUse" x1="247.5" x2="247.5" xlink:href="#lg1" y1="494.422" y2="17.553"/><path d="m477.5 21h-149.741c-16.337.007-29.617 13.177-29.759 29.514v31.522c0 19.854-14.73 22.887-31.287 24.434-2.405.139-4.793.48-7.141 1.018-2.533.581-4.452 2.654-4.835 5.225-.174 1.276.06 2.573.668 3.708 1.761 4.532 10.946 24.27 41.051 29.62.973.24 1.628 1.152 1.544 2.151v6.882c0 16.261 13.493 29.926 29.754 29.926h149.752c16.259 0 29.494-13.666 29.494-29.927v-104.555c.004-16.297-13.203-29.512-29.5-29.518zm17.5 134.071c0 9.646-7.851 17.929-17.5 17.929h-149.745c-9.791-.195-17.655-8.135-17.755-17.927v-6.812c.103-6.771-4.632-12.654-11.268-14-.036-.006-.006-.013-.043-.02-16.072-2.84-24.6-10.466-28.75-16.024 13.568-1.358 40.061-5.466 40.061-36.181v-31.522c.134-9.712 8.046-17.515 17.759-17.514h149.749c9.666.01 17.496 7.851 17.492 17.517z" fill="url(#SVGID_1_)"/><path d="m459.645 83h-5.009c-3.314 0-6 2.686-6 6s2.686 6 6 6h5.009c3.314 0 6-2.686 6-6s-2.686-6-6-6z" fill="url(#SVGID_2_)"/><path d="m439.464 89c0-3.314-2.686-6-6-6h-19.988c-3.314 0-6 2.686-6 6s2.686 6 6 6h19.988c3.314 0 6-2.686 6-6z" fill="url(#SVGID_3_)"/><path d="m346.836 95h47.2c3.314 0 6-2.686 6-6s-2.686-6-6-6h-47.2c-3.314 0-6 2.686-6 6s2.686 6 6 6z" fill="url(#SVGID_4_)"/><path d="m459.645 56h-23.945c-3.314 0-6 2.686-6 6s2.686 6 6 6h23.949c3.314 0 6-2.686 6-6s-2.686-6-6-6z" fill="url(#SVGID_5_)"/><path d="m377.97 68h36.554c3.314 0 6-2.686 6-6s-2.686-6-6-6h-36.554c-3.314 0-6 2.686-6 6s2.686 6 6 6z" fill="url(#SVGID_6_)"/><path d="m346.836 68h11.7c3.314 0 6-2.686 6-6s-2.686-6-6-6h-11.7c-3.314 0-6 2.686-6 6s2.686 6 6 6z" fill="url(#SVGID_7_)"/><path d="m459.645 110h-23.945c-3.314 0-6 2.686-6 6s2.686 6 6 6h23.949c3.314 0 6-2.686 6-6s-2.686-6-6-6z" fill="url(#SVGID_5_)"/><path d="m377.97 110c-3.314 0-6 2.686-6 6s2.686 6 6 6h36.554c3.314 0 6-2.686 6-6s-2.686-6-6-6z" fill="url(#SVGID_6_)"/><path d="m346.836 122h11.7c3.314 0 6-2.686 6-6s-2.686-6-6-6h-11.7c-3.314 0-6 2.686-6 6s2.686 6 6 6z" fill="url(#SVGID_7_)"/><path d="m459.645 137h-5.009c-3.314 0-6 2.686-6 6s2.686 6 6 6h5.009c3.314 0 6-2.686 6-6s-2.686-6-6-6z" fill="url(#SVGID_2_)"/><path d="m433.464 137h-19.988c-3.314 0-6 2.686-6 6s2.686 6 6 6h19.988c3.314 0 6-2.686 6-6s-2.686-6-6-6z" fill="url(#SVGID_3_)"/><path d="m394.04 137h-47.2c-3.314 0-6 2.686-6 6s2.686 6 6 6h47.2c3.314 0 6-2.686 6-6s-2.686-6-6-6z" fill="url(#SVGID_13_)"/><path d="m172.943 174.588c3.314 0 6-2.686 6-6 0-4.563 3.699-8.262 8.262-8.262s8.262 3.699 8.262 8.262c0 3.314 2.686 6 6 6s6-2.686 6-6c0-11.19-9.072-20.262-20.262-20.262s-20.262 9.072-20.262 20.262c0 3.314 2.686 6 6 6z" fill="url(#SVGID_14_)"/><path d="m125.4 174.588c3.314 0 6-2.686 6-6 .079-11.19-8.929-20.325-20.119-20.404s-20.325 8.929-20.404 20.119c-.001.095-.001.19 0 .285 0 3.314 2.686 6 6 6s6-2.686 6-6c-.05-4.563 3.608-8.302 8.171-8.352s8.302 3.608 8.352 8.171c.001.061.001.121 0 .182 0 3.313 2.686 5.999 6 5.999z" fill="url(#SVGID_15_)"/><path d="m177.192 226.259c2.343-2.343 2.343-6.143 0-8.486s-6.143-2.343-8.486 0c-10.785 10.788-28.273 10.789-39.061.004-.001-.001-.003-.003-.004-.004-2.343-2.344-6.143-2.344-8.486-.001s-2.344 6.143-.001 8.486c15.474 15.474 40.562 15.475 56.037.001 0 .001.001 0 .001 0z" fill="url(#SVGID_16_)"/><path d="m35 386.917c-3.314 0-6 2.686-6 6v4.563c0 3.314 2.686 6 6 6s6-2.686 6-6v-4.563c0-3.314-2.686-6-6-6z" fill="url(#SVGID_17_)"/><path d="m35 408.459c-3.314 0-6 2.686-6 6v46.174c0 3.314 2.686 6 6 6s6-2.686 6-6v-46.174c0-3.314-2.686-6-6-6z" fill="url(#SVGID_17_)"/><path d="m90.72 294.555-16.846 27.017c-.392.577-.674 1.221-.832 1.9-.392 1.823-.669 3.67-.827 5.528h-12.906c-30.014.117-54.289 24.471-54.309 54.485v104.937c0 3.313 2.687 5.578 6 5.578h276.347c2.959.161 5.489-2.107 5.65-5.067.009-.17.01-.341.003-.511v-4.029c9.075 6.538 19.98 10.048 31.165 10.029 3.237-.014 5.851-2.65 5.837-5.887 0-.038-.001-.075-.002-.113v-40.982c18.654-1.264 34.159-14.848 37.863-33.175l76.158 17.864c1.868 11.047 11.438 19.131 22.641 19.128 5.742 0 11.284-2.105 15.578-5.917 4.87-4.338 7.687-10.526 7.76-17.047v-147.872c-.158-12.837-10.692-23.116-23.53-22.959-.941.012-1.881.08-2.814.206-10.096 1.334-18.097 9.176-19.633 19.243l-120.607 28.089h-46.508c-17.272.034-33.254 9.15-42.075 24h-8.7c-.144-1.856-.405-3.702-.782-5.525-.141-.692-.408-1.352-.787-1.947l-16.609-27c-.229-.4-.829-1.322-2.005-1.953-1.288-.692-2.499-.623-2.95-.575h-10v-11.557c27.801-15.657 45.001-45.086 45-76.992v-.724c1 .084 1.5.138 2.289.138 12.227.061 22.188-9.802 22.249-22.029.037-7.437-3.663-14.395-9.849-18.524-3.142-2.175-6.863-3.36-10.684-3.4v-55.204c.191-47.391-38.072-85.963-85.463-86.154-12.646-.051-25.147 2.694-36.609 8.039l-22.733 10.582c-.833-2.416-3.106-4.038-5.662-4.04-24.588.029-44.512 19.956-44.538 44.544v78.792c.009 1.843.864 3.58 2.319 4.712-1.434.544-2.797 1.259-4.06 2.129-5.11 3.516-8.507 9.019-9.359 15.163-1.393 10.115 4.236 19.89 13.684 23.761 2.577 1.071 5.339 1.625 8.13 1.629.765.032 1.532-.021 2.286-.156v.742c0 32.912 19 61.692 45 76.991v11.558h-9c-.564-.019-1.649.021-2.85.575-1.32.609-2.09 1.52-2.43 1.98zm365.28-14.134c-.046-5.448 3.943-10.09 9.336-10.863.468-.067.941-.1 1.414-.1 2.693-.002 5.299.955 7.351 2.7 2.425 2.066 3.846 5.075 3.9 8.261v147.874c-.052 3.13-1.434 6.089-3.8 8.139-2.273 2.093-5.339 3.102-8.411 2.768-5.588-.566-9.828-5.29-9.79-10.907zm-34 14.113 22-5.032v130.222l-22-5.032zm-92 21.625 80-18.809v114.526l-80-18.809zm0 89.234 26.112 6.127c-2.498 12.842-13.099 22.54-26.112 23.889zm-92-233.371c2-1.534 5.7-1.534 8.152.16 4.659 3.188 5.851 9.55 2.663 14.209-2.393 3.496-6.694 5.154-10.815 4.168zm80 309.972c-20.095-2.838-35.026-20.05-35-40.344v-37.65h35zm-41.092-164.994h41.092v75h-41.092c-20.517 0-37.209-16.983-37.209-37.5s16.692-37.5 37.209-37.5zm-69.862-.906 6.724 10.843c2.45 14.22-3.803 28.534-15.9 36.4l-23.955 15.683-15.694-21 25.324-13.045.1-.056c11.345-6.087 19.775-16.471 23.401-28.825zm-21.3 12.525c-2.328 2.244-4.946 4.167-7.784 5.718l-28.808 14.848-28.816-14.848c-2.881-1.55-5.544-3.473-7.922-5.719 3.04-4.612 4.636-10.026 4.584-15.55v-26.9c20.593 7.947 43.407 7.947 64 0v26.9c.008 5.54 1.661 10.952 4.749 15.551zm11.209-24.619c-.157 4.709-1.271 9.336-3.276 13.6-.427-1.473-.655-2.996-.679-4.53v-9.07zm-98.955-254.749 27.3-12.774c36.84-17.177 80.63-1.237 97.807 35.604 4.616 9.9 6.971 20.704 6.893 31.627v32.592c-10-18.37-29.925-30.3-52.595-30.3h-51.955c-13.615-.007-25.228-9.861-27.45-23.294zm-39 27.428c0-15.9 12-29.166 27-31.99v72.237c0 15.9-12 29.167-27 31.991zm1 113.836c-2.058.552-4.241.405-6.206-.419-4.305-1.794-6.838-6.288-6.143-10.9.319-2.82 1.822-5.372 4.134-7.019 2.507-1.732 6.215-1.689 8.215-.048zm12 12.936v-46.459c15-7.234 26-22.474 26-40.066v-10.519c7.271 7.321 17.132 11.486 27.45 11.593h51.955c23.942-.077 44.449 17.122 48.543 40.711-.012.158.052.076.052.237v44.5c0 42.278-34.722 76.674-77 76.674s-77-34.393-77-76.671zm33 100.549v9.068c.034 1.525-.137 3.049-.506 4.529-1.948-4.275-3.003-8.903-3.1-13.6zm-20.424 22.937 6.724-10.843c3.623 12.353 12.05 22.737 23.392 28.827l.105.056 25.324 13.045-15.693 21-23.955-15.683c-12.098-7.866-18.35-22.181-15.897-36.402zm-67.576 56.548c.012-23.39 18.919-42.376 42.309-42.485h13.431c2.24 13.243 9.911 24.948 21.16 32.287l28.673 18.813c2.639 1.761 6.195 1.148 8.092-1.395l18.508-24.755 18.509 24.764c1.897 2.538 5.44 3.164 8.091 1.429l28.672-18.858c11.249-7.338 18.921-19.042 21.161-32.285h4.063c-7.415 26.251 7.854 53.542 34.104 60.958 2.369.669 4.785 1.16 7.227 1.469v38.223c-.009 11.062 3.493 21.841 10 30.787v9.563h-43v-59.9c0-3.314-2.686-6-6-6s-6 2.686-6 6v59.9h-154v-59.9c0-3.314-2.686-6-6-6s-6 2.686-6 6v59.9h-43z" fill="url(#SVGID_19_)"/></svg>