<?xml version="1.0"?>
<svg xmlns="http://www.w3.org/2000/svg" xmlns:xlink="http://www.w3.org/1999/xlink" xmlns:svgjs="http://svgjs.com/svgjs" version="1.1" width="512" height="512" x="0" y="0" viewBox="0 0 74 74" style="enable-background:new 0 0 512 512" xml:space="preserve" class=""><g><path xmlns="http://www.w3.org/2000/svg" d="M25.9,65H6a4,4,0,0,1-4-4V29a4,4,0,0,1,4-4H25.9a1,1,0,0,1,0,2H6a2,2,0,0,0-2,2V61a2,2,0,0,0,2,2H25.9a1,1,0,1,1,0,2Z" fill="#c4c2c2" data-original="#000000" style=""/><path xmlns="http://www.w3.org/2000/svg" d="M68,65H48.1a1,1,0,1,1,0-2H68a2,2,0,0,0,2-2V29a2,2,0,0,0-2-2H48.1a1,1,0,1,1,0-2H68a4,4,0,0,1,4,4V61A4,4,0,0,1,68,65Z" fill="#c4c2c2" data-original="#000000" style=""/><path xmlns="http://www.w3.org/2000/svg" d="M37,68A23,23,0,1,1,60,45,23.026,23.026,0,0,1,37,68Zm0-44A21,21,0,1,0,58,45,21.024,21.024,0,0,0,37,24Z" fill="#c4c2c2" data-original="#000000" style=""/><path xmlns="http://www.w3.org/2000/svg" d="M36.7,61.57h-.009a15.662,15.662,0,0,1-3.333-.4,1,1,0,0,1,.444-1.95,13.7,13.7,0,0,0,2.907.345,1,1,0,0,1-.009,2Z" fill="#c4c2c2" data-original="#000000" style=""/><path xmlns="http://www.w3.org/2000/svg" d="M43.471,60.16a1,1,0,0,1-.416-1.91A14.575,14.575,0,1,0,22.42,45a13.615,13.615,0,0,0,.261,2.7,1.109,1.109,0,0,1,.019.2,1,1,0,0,1-1.991.142A15.723,15.723,0,0,1,20.42,45,16.58,16.58,0,1,1,43.885,60.07,1,1,0,0,1,43.471,60.16Z" fill="#c4c2c2" data-original="#000000" style=""/><path xmlns="http://www.w3.org/2000/svg" d="M27.269,58.16a1,1,0,0,1-.624-.219,16.472,16.472,0,0,1-2.342-2.29,1,1,0,1,1,1.535-1.282,14.435,14.435,0,0,0,2.057,2.01,1,1,0,0,1-.626,1.781Z" fill="#c4c2c2" data-original="#000000" style=""/><path xmlns="http://www.w3.org/2000/svg" d="M40.427,35.036a1.009,1.009,0,0,1-.285-.042c-.263-.078-.531-.151-.8-.207a1,1,0,0,1,.4-1.959c.332.068.655.154.974.249a1,1,0,0,1-.285,1.959Z" fill="#c4c2c2" data-original="#000000" style=""/><path xmlns="http://www.w3.org/2000/svg" d="M47.842,47a1.02,1.02,0,0,1-.173-.015,1,1,0,0,1-.814-1.157,9.6,9.6,0,0,0-2.7-8.464,1,1,0,1,1,1.409-1.42,11.6,11.6,0,0,1,3.264,10.228A1,1,0,0,1,47.842,47Z" fill="#c4c2c2" data-original="#000000" style=""/><path xmlns="http://www.w3.org/2000/svg" d="M17.15,36.5H3a1,1,0,0,1,0-2H17.15a1,1,0,0,1,0,2Z" fill="#c4c2c2" data-original="#000000" style=""/><path xmlns="http://www.w3.org/2000/svg" d="M17.15,55.5H3a1,1,0,0,1,0-2H17.15a1,1,0,1,1,0,2Z" fill="#c4c2c2" data-original="#000000" style=""/><path xmlns="http://www.w3.org/2000/svg" d="M71,55.5H56.85a1,1,0,1,1,0-2H71a1,1,0,0,1,0,2Z" fill="#c4c2c2" data-original="#000000" style=""/><path xmlns="http://www.w3.org/2000/svg" d="M71,36.5H56.85a1,1,0,1,1,0-2H71a1,1,0,0,1,0,2Z" fill="#c4c2c2" data-original="#000000" style=""/><path xmlns="http://www.w3.org/2000/svg" d="M43,24.83a1,1,0,0,1-1-1V19H32v4.83a1,1,0,0,1-2,0V18a1,1,0,0,1,1-1H43a1,1,0,0,1,1,1v5.83A1,1,0,0,1,43,24.83Z" fill="#c4c2c2" data-original="#000000" style=""/><path xmlns="http://www.w3.org/2000/svg" d="M48,19H26a2,2,0,0,1-2-2V9a2,2,0,0,1,2-2H48a2,2,0,0,1,2,2v8A2,2,0,0,1,48,19ZM26,9v8H48V9Z" fill="#c4c2c2" data-original="#000000" style=""/><path xmlns="http://www.w3.org/2000/svg" d="M64,27H56.25a1,1,0,0,1-1-1V21.448a2.117,2.117,0,0,1,2.114-2.115h5.522A2.117,2.117,0,0,1,65,21.448V26A1,1,0,0,1,64,27Zm-6.75-2H63V21.448a.115.115,0,0,0-.114-.115H57.364a.115.115,0,0,0-.114.115Z" fill="#c4c2c2" data-original="#000000" style=""/></g></svg>
