<?xml version="1.0"?>
<svg xmlns="http://www.w3.org/2000/svg" xmlns:xlink="http://www.w3.org/1999/xlink" xmlns:svgjs="http://svgjs.com/svgjs" version="1.1" width="512" height="512" x="0" y="0" viewBox="0 0 74 74" style="enable-background:new 0 0 512 512" xml:space="preserve" class=""><g><path xmlns="http://www.w3.org/2000/svg" d="m12.144 30.708a2.985 2.985 0 1 1 2.985-2.984 2.987 2.987 0 0 1 -2.985 2.984zm0-3.969a.985.985 0 1 0 .985.985.986.986 0 0 0 -.985-.985z" fill="#c4c2c2" data-original="#000000" style=""/><path xmlns="http://www.w3.org/2000/svg" d="m39.44 65.15h-2.97a1 1 0 0 1 0-2h2.97a1 1 0 0 1 0 2z" fill="#c4c2c2" data-original="#000000" style=""/><path xmlns="http://www.w3.org/2000/svg" d="m19.56 65.15h-11.58a5.987 5.987 0 0 1 -5.98-5.98v-31.56a6.007 6.007 0 0 1 5.173-5.921l22.972-3.15a1 1 0 0 1 .271 1.982l-22.971 3.15a4 4 0 0 0 -3.445 3.939v31.56a3.985 3.985 0 0 0 3.98 3.98h11.58a1 1 0 0 1 0 2z" fill="#c4c2c2" data-original="#000000" style=""/><path xmlns="http://www.w3.org/2000/svg" d="m29.47 65.15h-2.91a1 1 0 0 1 0-2h2.91a1 1 0 1 1 0 2z" fill="#c4c2c2" data-original="#000000" style=""/><path xmlns="http://www.w3.org/2000/svg" d="m66.02 65.15h-19.58a1 1 0 0 1 0-2h19.58a3.985 3.985 0 0 0 3.98-3.98v-31.74a3.952 3.952 0 0 0 -3.007-3.859l-12.125-3.031a1 1 0 0 1 .485-1.94l12.12 3.03a5.945 5.945 0 0 1 4.527 5.8v31.74a5.987 5.987 0 0 1 -5.98 5.98z" fill="#c4c2c2" data-original="#000000" style=""/><path xmlns="http://www.w3.org/2000/svg" d="m42.838 60.484a17.963 17.963 0 1 1 17.962-17.963 17.984 17.984 0 0 1 -17.962 17.963zm0-33.925a15.963 15.963 0 1 0 15.962 15.962 15.981 15.981 0 0 0 -15.962-15.962z" fill="#c4c2c2" data-original="#000000" style=""/><path xmlns="http://www.w3.org/2000/svg" d="m42.839 55.266a12.745 12.745 0 1 1 12.744-12.745 12.76 12.76 0 0 1 -12.744 12.745zm0-23.49a10.745 10.745 0 1 0 10.744 10.745 10.758 10.758 0 0 0 -10.744-10.745z" fill="#c4c2c2" data-original="#000000" style=""/><path xmlns="http://www.w3.org/2000/svg" d="m42.839 47.376a4.855 4.855 0 1 1 4.854-4.855 4.861 4.861 0 0 1 -4.854 4.855zm0-7.709a2.855 2.855 0 1 0 2.854 2.854 2.859 2.859 0 0 0 -2.854-2.854z" fill="#c4c2c2" data-original="#000000" style=""/><path xmlns="http://www.w3.org/2000/svg" d="m61.389 47.848a5.289 5.289 0 0 1 -2.506-.631 1 1 0 1 1 .953-1.759 3.265 3.265 0 0 0 1.553.39 3.327 3.327 0 0 0 0-6.653 3.265 3.265 0 0 0 -1.553.39 1 1 0 1 1 -.953-1.759 5.323 5.323 0 1 1 2.506 10.022z" fill="#c4c2c2" data-original="#000000" style=""/><path xmlns="http://www.w3.org/2000/svg" d="m56.532 33.506a1 1 0 0 1 -.993-.891l-2.089-19.015a3.086 3.086 0 0 0 -3.071-2.752h-15.579a3.1 3.1 0 0 0 -3.078 2.852l-1.432 18.683a1 1 0 1 1 -1.99-.153l1.432-18.678a5.112 5.112 0 0 1 5.075-4.7h15.572a5.084 5.084 0 0 1 5.059 4.533l2.089 19.015a1 1 0 0 1 -.884 1.1 1.06 1.06 0 0 1 -.111.006z" fill="#c4c2c2" data-original="#000000" style=""/><path xmlns="http://www.w3.org/2000/svg" d="m29.106 33.556h-26.106a1 1 0 1 1 0-2h26.106a1 1 0 1 1 0 2z" fill="#c4c2c2" data-original="#000000" style=""/><path xmlns="http://www.w3.org/2000/svg" d="m43.828 16h-7.959a1 1 0 0 1 0-2h7.959a1 1 0 0 1 0 2z" fill="#c4c2c2" data-original="#000000" style=""/><path xmlns="http://www.w3.org/2000/svg" d="m49.808 16h-1.708a1 1 0 0 1 0-2h1.711a1 1 0 0 1 0 2z" fill="#c4c2c2" data-original="#000000" style=""/><path xmlns="http://www.w3.org/2000/svg" d="m14.465 22.7a1 1 0 0 1 -1-.935l-.165-2.528a2.691 2.691 0 0 1 2.5-2.855l8.026-.535a2.686 2.686 0 0 1 2.86 2.5l.114 1.727a1 1 0 1 1 -2 .13l-.1-1.722a.677.677 0 0 0 -.232-.471.7.7 0 0 0 -.5-.169l-8.027.535a.688.688 0 0 0 -.639.731l.165 2.526a1 1 0 0 1 -.933 1.063c-.025.003-.048.003-.069.003z" fill="#c4c2c2" data-original="#000000" style=""/></g></svg>
