<?xml version="1.0"?>
<svg xmlns="http://www.w3.org/2000/svg" xmlns:xlink="http://www.w3.org/1999/xlink" xmlns:svgjs="http://svgjs.com/svgjs" version="1.1" width="512" height="512" x="0" y="0" viewBox="0 0 512 512" style="enable-background:new 0 0 512 512" xml:space="preserve" class=""><g><g xmlns="http://www.w3.org/2000/svg"><path d="m496.982 133.032c0 82.84-51.306 158.697-127.975 189.696-45.236-18.274-82.44-52.073-104.969-95.443l-13.317 6.913c5.852 11.266 12.637 21.922 20.233 31.894v40.1c0 51.953-19.522 101.507-54.969 139.533l10.976 10.227c38.045-40.812 58.998-93.998 58.998-149.76v-22.419c22.885 24.278 51.325 43.206 83.048 55.067 84.578-30.476 144.006-115.913 142.98-205.808v-72.741h-15.005z" fill="#c4c2c2" data-original="#000000" style=""/><path d="m449.361 0c-28.263 0-55.945 7.439-80.359 21.555-24.154-15.258-51.69-20.216-79.702-21.555h-63.272v133.032c0 13.573 1.241 26.972 3.681 40.128-30.35-.875-60.503 6.264-86.734 21.555-42.633-26.869-95.257-21.24-142.975-21.555v133.032c0 44.48 13.289 87.388 38.428 124.086 25.664 37.512 61.982 65.813 104.552 81.722 17.239-6.475 33.696-15.025 48.761-25.522l-8.569-12.315c-12.507 8.699-26.017 16-40.191 21.726-76.67-31-127.976-106.856-127.976-189.697v-118.031c46.821-.232 86.816-3.655 127.979 24.098 26.589-17.634 58.293-25.463 90.05-24.098 2.754 10.6 6.312 21.017 10.673 31.207l13.796-5.901c-10.929-25.538-16.47-52.6-16.47-80.435v-118.031c46.821-.232 86.816-3.655 127.979 24.098 41.019-27.749 81.253-24.331 127.97-24.098v30.289h15.005v-45.29z" fill="#c4c2c2" data-original="#000000" style=""/><path d="m428.458 135.792c8.274 0 15.005 6.729 15.005 15.001h15.005c0-16.543-13.463-30.002-30.01-30.002s-30.01 13.459-30.01 30.002h15.005c0-8.272 6.731-15.001 15.005-15.001z" fill="#c4c2c2" data-original="#000000" style=""/><path d="m300.915 150.793c0-8.272 6.731-15.001 15.005-15.001s15.005 6.729 15.005 15.001h15.005c0-16.543-13.463-30.002-30.01-30.002-16.548 0-30.01 13.459-30.01 30.002z" fill="#c4c2c2" data-original="#000000" style=""/><path d="m334.741 181.694-7.632 12.917 42.252 24.951 40.459-24.348-7.739-12.852-32.792 19.734z" fill="#c4c2c2" data-original="#000000" style=""/><path d="m195.254 465.08 9.454 11.647c4.024-3.264 7.978-6.712 11.752-10.248l-10.26-10.946c-3.515 3.295-7.198 6.506-10.946 9.547z" fill="#c4c2c2" data-original="#000000" style=""/><path d="m232.441 300.451h-15.005c0 8.272-6.731 15.001-15.005 15.001s-15.005-6.729-15.005-15.001h-15.006c0 16.543 13.463 30.002 30.01 30.002s30.011-13.459 30.011-30.002z" fill="#c4c2c2" data-original="#000000" style=""/><path d="m89.892 330.453c16.548 0 30.01-13.459 30.01-30.002h-15.005c0 8.272-6.731 15.001-15.005 15.001s-15.005-6.729-15.005-15.001h-15.005c0 16.543 13.462 30.002 30.01 30.002z" fill="#c4c2c2" data-original="#000000" style=""/><path d="m143.261 369.044 32.792 19.735 7.739-12.853-40.459-24.348-42.251 24.953 7.631 12.915z" fill="#c4c2c2" data-original="#000000" style=""/><path d="m255.894 30.289h15.005v15.001h-15.005z" fill="#c4c2c2" data-original="#000000" style=""/><path d="m285.909 30.289h15.005v15.001h-15.005z" fill="#c4c2c2" data-original="#000000" style=""/><path d="m29.867 203.328h15.005v15.001h-15.005z" fill="#c4c2c2" data-original="#000000" style=""/><path d="m59.882 203.328h15.005v15.001h-15.005z" fill="#c4c2c2" data-original="#000000" style=""/></g></g></svg>
