<?xml version="1.0"?>
<svg xmlns="http://www.w3.org/2000/svg" xmlns:xlink="http://www.w3.org/1999/xlink" xmlns:svgjs="http://svgjs.com/svgjs" version="1.1" width="512" height="512" x="0" y="0" viewBox="0 0 455 455" style="enable-background:new 0 0 512 512" xml:space="preserve" class=""><g>
<g xmlns="http://www.w3.org/2000/svg">
	<path d="M407.5,99.5h-64.38c-32.88-25.814-73.828-40-115.62-40c-41.792,0-82.74,14.186-115.621,40H47.5   C21.309,99.5,0,120.809,0,147v201c0,26.191,21.309,47.5,47.5,47.5h360c26.191,0,47.5-21.309,47.5-47.5V147   C455,120.809,433.691,99.5,407.5,99.5z M440,348c0,17.92-14.579,32.5-32.5,32.5h-360C29.58,380.5,15,365.92,15,348V147   c0-17.92,14.58-32.5,32.5-32.5h67.002c1.717,0,3.381-0.589,4.716-1.668C149.784,88.113,188.239,74.5,227.5,74.5   s77.716,13.613,108.282,38.332c1.335,1.08,2.999,1.668,4.716,1.668H407.5c17.921,0,32.5,14.58,32.5,32.5V348z" fill="#c4c2c2" data-original="#000000" style="" class=""/>
	<path d="M227.5,129.5C162.71,129.5,110,182.21,110,247s52.71,117.5,117.5,117.5c64.79,0,117.5-52.71,117.5-117.5   S292.29,129.5,227.5,129.5z M227.5,349.5C170.981,349.5,125,303.519,125,247s45.981-102.5,102.5-102.5S330,190.481,330,247   S284.019,349.5,227.5,349.5z" fill="#c4c2c2" data-original="#000000" style="" class=""/>
	<path d="M227.5,169.5c-42.734,0-77.5,34.766-77.5,77.5s34.766,77.5,77.5,77.5c42.733,0,77.5-34.766,77.5-77.5   S270.233,169.5,227.5,169.5z M227.5,309.5c-34.462,0-62.5-28.038-62.5-62.5s28.038-62.5,62.5-62.5c34.463,0,62.5,28.038,62.5,62.5   S261.963,309.5,227.5,309.5z" fill="#c4c2c2" data-original="#000000" style="" class=""/>
	<path d="M60.001,84.5h42c4.142,0,7.5-3.358,7.5-7.5s-3.358-7.5-7.5-7.5h-42c-4.142,0-7.5,3.358-7.5,7.5S55.859,84.5,60.001,84.5z" fill="#c4c2c2" data-original="#000000" style="" class=""/>
	<path d="M387.5,139.5c-15.163,0-27.5,12.336-27.5,27.5s12.337,27.5,27.5,27.5S415,182.164,415,167S402.663,139.5,387.5,139.5z    M387.5,179.5c-6.893,0-12.5-5.607-12.5-12.5s5.607-12.5,12.5-12.5S400,160.107,400,167S394.393,179.5,387.5,179.5z" fill="#c4c2c2" data-original="#000000" style="" class=""/>
</g>
<g xmlns="http://www.w3.org/2000/svg">
</g>
<g xmlns="http://www.w3.org/2000/svg">
</g>
<g xmlns="http://www.w3.org/2000/svg">
</g>
<g xmlns="http://www.w3.org/2000/svg">
</g>
<g xmlns="http://www.w3.org/2000/svg">
</g>
<g xmlns="http://www.w3.org/2000/svg">
</g>
<g xmlns="http://www.w3.org/2000/svg">
</g>
<g xmlns="http://www.w3.org/2000/svg">
</g>
<g xmlns="http://www.w3.org/2000/svg">
</g>
<g xmlns="http://www.w3.org/2000/svg">
</g>
<g xmlns="http://www.w3.org/2000/svg">
</g>
<g xmlns="http://www.w3.org/2000/svg">
</g>
<g xmlns="http://www.w3.org/2000/svg">
</g>
<g xmlns="http://www.w3.org/2000/svg">
</g>
<g xmlns="http://www.w3.org/2000/svg">
</g>
</g></svg>
