<?xml version="1.0"?>
<svg xmlns="http://www.w3.org/2000/svg" id="Layer_1" data-name="Layer 1" viewBox="0 0 512 512" width="512" height="512"><path d="M269.947,279.079a6,6,0,0,0,6-6,3.873,3.873,0,1,1,7.745,0,6,6,0,0,0,12,0,15.873,15.873,0,1,0-31.745,0A6,6,0,0,0,269.947,279.079Z"/><path d="M311.548,279.079a6,6,0,0,0,6-6,3.873,3.873,0,1,1,7.745,0,6,6,0,1,0,12,0,15.873,15.873,0,1,0-31.745,0A6,6,0,0,0,311.548,279.079Z"/><path d="M289.152,304.5a6,6,0,0,0-12,0,23.942,23.942,0,1,0,47.883,0,6,6,0,0,0-12,0,11.942,11.942,0,1,1-23.883,0Z"/><path d="M159.709,199.864a6,6,0,0,0,.5,4.567l22.843,41.67c6.313,11.515,20.817,21.97,33.019,23.8l28.905,4.344a17.977,17.977,0,0,0,2.66.2,17.661,17.661,0,0,0,2.022-.129v20.56c0,13.132,7.693,29.272,17.513,36.745l23.256,17.7a17.662,17.662,0,0,0,21.339,0l23.258-17.7c9.819-7.473,17.511-23.614,17.511-36.746V247.428a6,6,0,0,0-6-6l-72.787-.057,1.817-4.084c5.019-11.274,4.006-29.126-2.306-40.641l-22.809-41.607a6,6,0,0,0-8.141-2.379l-79.723,43.623A6,6,0,0,0,159.709,199.864Zm180.823,53.559v41.454c0,9.471-5.851,21.925-12.779,27.2l-23.259,17.7a5.628,5.628,0,0,1-6.8,0l-23.256-17.7c-6.809-5.181-12.781-17.889-12.781-27.2V253.362Zm-97.72-87.358,19.925,36.35c4.553,8.3,5.409,22.038,1.867,29.992l-3.984,8.954-4.96,0h0a6,6,0,0,0-6,6v14.689a5.57,5.57,0,0,1-2.9.334l-28.9-4.344c-8.46-1.27-19.805-9.543-24.279-17.7l-19.957-36.4Z"/><path d="M196.845,215.287a3.872,3.872,0,1,1,6.791-3.723,6,6,0,0,0,10.523-5.769,15.873,15.873,0,0,0-27.838,15.261,6,6,0,0,0,10.524-5.769Z"/><path d="M225.869,204.213a6,6,0,0,0,5.257-8.885,3.873,3.873,0,1,1,6.791-3.724,6,6,0,0,0,10.523-5.769A15.873,15.873,0,0,0,220.6,201.1,6,6,0,0,0,225.869,204.213Z"/><path d="M226.057,254.183a6,6,0,0,0,5.255-8.886,10.584,10.584,0,1,1,18.561-10.175,6,6,0,0,0,10.523-5.768,22.584,22.584,0,1,0-39.606,21.713A6,6,0,0,0,226.057,254.183Z"/><path d="M106.02,130.736a6,6,0,0,0-6-5.993h-.007a6,6,0,0,0-5.993,6.007A82.1,82.1,0,0,1,86.7,164.686,82.046,82.046,0,0,1,59.6,197.371a6,6,0,1,0,6.949,9.783,94.063,94.063,0,0,0,31.077-37.487A94.2,94.2,0,0,0,106.02,130.736Z"/><path d="M76.37,160.711a52.314,52.314,0,0,0,4.669-21.637,6,6,0,0,0-6-5.993h-.007a6,6,0,0,0-5.993,6.007A39.8,39.8,0,0,1,52.154,171.76a6,6,0,1,0,6.95,9.783A52.267,52.267,0,0,0,76.37,160.711Z"/><path d="M448.179,12.5H63.821C46.551,12.5,32.5,25.043,32.5,40.461v348.57a12.591,12.591,0,0,0,6.993,11.435,12.146,12.146,0,0,0,13.025-1.6l3.344-2.746a.248.248,0,0,1,.346.032l.073.085a19.523,19.523,0,0,0,11.031,6.62,19.007,19.007,0,0,0,16.138-4.213.246.246,0,0,1,.335.012,12.179,12.179,0,0,0,11.057,3.253A25.748,25.748,0,0,0,90,416.962v4.1H75.9a25.928,25.928,0,0,0-25.9,25.9V493.5a6,6,0,0,0,6,6H456a6,6,0,0,0,6-6V446.962a25.928,25.928,0,0,0-25.9-25.9H422v-4.1a25.766,25.766,0,0,0-5.662-16.134,12.2,12.2,0,0,0,7.391-3.456.247.247,0,0,1,.333-.013c.023.021.047.041.072.061a19.033,19.033,0,0,0,16.224,4.124,19.47,19.47,0,0,0,10.859-6.572l.089-.1c.022-.027.056-.03.086-.045.062,0,.124-.006.185-.009.025.009.051,0,.072.022l8.374,6.873a11.843,11.843,0,0,0,7.534,2.723,11.965,11.965,0,0,0,5.131-1.166A12.285,12.285,0,0,0,479.5,392.1V40.461C479.5,25.043,465.449,12.5,448.179,12.5ZM44.5,82.891H94.655v8.354c0,11.409-11.25,20.691-25.077,20.691S44.5,102.654,44.5,91.245Zm0,32.408a39.786,39.786,0,0,0,25.078,8.637c13,0,24.457-5.937,31.077-14.894,5.975,8.082,15.883,13.707,27.318,14.727-1.76,10-6.152,30.107-15.547,50.038C96.417,207.764,73.586,226.312,44.5,229.03Zm149.389,8.637c13.07,0,24.574-6,31.178-15.034,6.6,9.035,18.109,15.034,31.18,15.034,13,0,24.457-5.937,31.077-14.894C293.945,118,305.4,123.936,318.4,123.936S342.859,118,349.48,109.042a36.745,36.745,0,0,0,17.844,12.734,221.645,221.645,0,0,0,19.108,55.956c11.436,22.45,25.884,39.082,42.771,49.5l-8.557,19.293c-6.051,14.9-28.405,76.128-17.652,143.752a13.177,13.177,0,0,0,.451,1.853,25.818,25.818,0,0,0-7.343-1.067H355.9a25.854,25.854,0,0,0-19.9,9.343,25.854,25.854,0,0,0-19.9-9.343H275.9a25.852,25.852,0,0,0-19.9,9.343,25.852,25.852,0,0,0-19.9-9.343H195.9a25.852,25.852,0,0,0-19.9,9.343,25.852,25.852,0,0,0-19.9-9.343H115.9a25.739,25.739,0,0,0-12.058,2.988,12.972,12.972,0,0,0,.681-2.5c9.173-57.717-5.766-110.769-14.1-134.337q-4.5-12.721-8.107-25.729l-.706-2.528c16.9-10.444,31.031-27.352,41.8-50.312a215.987,215.987,0,0,0,16.865-55.595,37.437,37.437,0,0,0,22.536-14.009C169.431,118,180.885,123.936,193.889,123.936ZM168.811,91.245V82.891h50.155v8.354c0,11.409-11.25,20.691-25.077,20.691S168.811,102.654,168.811,91.245Zm62.155,0V82.891h50.358v8.354c0,11.409-11.25,20.691-25.077,20.691s-25.078-9.282-25.078-20.691Zm62.358,0V82.891H343.48v8.354c0,11.409-11.25,20.691-25.078,20.691S293.324,102.654,293.324,91.245Zm62.156,0V82.891h49.865v8.354c0,11.409-11.119,20.691-24.787,20.691C366.73,111.936,355.48,102.654,355.48,91.245Zm-198.669,0c0,11.409-11.25,20.691-25.078,20.691s-25.078-9.282-25.078-20.691V82.891h50.156ZM44.5,241.063a83.4,83.4,0,0,0,26.338-6.483l2.891,8.565A101.815,101.815,0,0,1,44.5,250.583ZM92.628,389.926a.24.24,0,0,1-.192.235.182.182,0,0,1-.238-.058,12.384,12.384,0,0,0-2.654-1.986v-38.87a6,6,0,0,0-12,0v38.945a12.536,12.536,0,0,0-1.891,1.334,7.089,7.089,0,0,1-10.007-.8l-.3-.349a12.071,12.071,0,0,0-2.719-2.368V326.39a6,6,0,0,0-12,0v58.946L44.9,389.594c-.079.066-.117.1-.262.032s-.142-.119-.142-.223V262.657a113.055,113.055,0,0,0,32.232-7.765C83.443,272.428,102.358,329.2,92.628,389.926ZM130,487.5H62V446.962a13.914,13.914,0,0,1,13.9-13.9h40.2a13.914,13.914,0,0,1,13.9,13.9Zm6-57.093a25.852,25.852,0,0,0-19.9-9.343H102v-4.1a13.914,13.914,0,0,1,13.9-13.9h40.2a13.914,13.914,0,0,1,13.9,13.9v4.1H155.9A25.852,25.852,0,0,0,136,430.407ZM210,487.5H142V446.962a13.914,13.914,0,0,1,13.9-13.9h40.2a13.914,13.914,0,0,1,13.9,13.9Zm6-57.093a25.852,25.852,0,0,0-19.9-9.343H182v-4.1a13.914,13.914,0,0,1,13.9-13.9h40.2a13.914,13.914,0,0,1,13.9,13.9v4.1H235.9A25.852,25.852,0,0,0,216,430.407ZM290,487.5H222V446.962a13.914,13.914,0,0,1,13.9-13.9h40.2a13.914,13.914,0,0,1,13.9,13.9Zm6-57.093a25.852,25.852,0,0,0-19.9-9.343H262v-4.1a13.914,13.914,0,0,1,13.9-13.9h40.2a13.914,13.914,0,0,1,13.9,13.9v4.1H315.9A25.852,25.852,0,0,0,296,430.407ZM370,487.5H302V446.962a13.914,13.914,0,0,1,13.9-13.9h40.2a13.914,13.914,0,0,1,13.9,13.9Zm6-57.093a25.854,25.854,0,0,0-19.9-9.343H342v-4.1a13.914,13.914,0,0,1,13.9-13.9h40.2a13.914,13.914,0,0,1,13.9,13.9v4.1H395.9A25.854,25.854,0,0,0,376,430.407Zm60.1,2.657a13.914,13.914,0,0,1,13.9,13.9V487.5H382V446.962a13.914,13.914,0,0,1,13.9-13.9Zm31.4-40.744-10.249-8.1v-59.8a6,6,0,0,0-12,0v60.092a12.06,12.06,0,0,0-3.083,2.576l-.3.353a7.09,7.09,0,0,1-10.006.795l-.082-.069a12.573,12.573,0,0,0-1.445-1.034V346.279a6,6,0,0,0-12,0v40.357a12.412,12.412,0,0,0-3.019,2.18.182.182,0,0,1-.237.058.238.238,0,0,1-.192-.236c-9.724-60.683,9.236-117.589,15.922-135.085,14.284,5.532,28.695,6.788,36.692,7.009Zm0-143.772c-7.2-.229-20.208-1.391-32.775-6.343l5.1-9.392a85.5,85.5,0,0,0,27.671,6.964Zm0-20.8c-29.264-2.71-52.874-21.251-70.244-55.2a211.139,211.139,0,0,1-17.209-48.616c.171,0,.34.011.512.011,12.885,0,24.238-5.923,30.81-14.862,6.624,8.939,18.067,14.862,31.054,14.862A39.786,39.786,0,0,0,467.5,115.3Zm0-136.491c-.007,11.405-11.254,20.682-25.078,20.682s-25.077-9.282-25.077-20.691V82.891H467.5Zm0-20.363H44.5V40.461c0-8.8,8.668-15.961,19.321-15.961H448.179c10.653,0,19.321,7.16,19.321,15.961Z"/><path d="M447.918,196.083a81.193,81.193,0,0,1-34.424-66.62,6,6,0,0,0-5.992-6.007h-.008a6,6,0,0,0-6,5.993,93.191,93.191,0,0,0,39.475,76.418,6,6,0,0,0,6.949-9.784Z"/><path d="M438.474,137.8a6,6,0,0,0-5.994-6.007h-.006a6,6,0,0,0-6,5.993,51.8,51.8,0,0,0,21.937,42.469,6,6,0,1,0,6.947-9.784A39.8,39.8,0,0,1,438.474,137.8Z"/><path d="M171.24,30.108a17.737,17.737,0,1,0,17.817,17.737A17.8,17.8,0,0,0,171.24,30.108Zm0,23.474a5.738,5.738,0,1,1,5.817-5.737A5.784,5.784,0,0,1,171.24,53.582Z"/><path d="M227.747,30.108a17.737,17.737,0,1,0,17.816,17.737A17.8,17.8,0,0,0,227.747,30.108Zm0,23.474a5.738,5.738,0,1,1,5.816-5.737A5.784,5.784,0,0,1,227.747,53.582Z"/><path d="M340.76,30.108a17.737,17.737,0,1,0,17.816,17.737A17.8,17.8,0,0,0,340.76,30.108Zm0,23.474a5.738,5.738,0,1,1,5.816-5.737A5.785,5.785,0,0,1,340.76,53.582Z"/><path d="M284.253,30.108a17.737,17.737,0,1,0,17.816,17.737A17.8,17.8,0,0,0,284.253,30.108Zm0,23.474a5.738,5.738,0,1,1,5.816-5.737A5.784,5.784,0,0,1,284.253,53.582Z"/></svg>
