<?xml version="1.0" encoding="iso-8859-1"?>
<!-- Generator: Adobe Illustrator 19.0.0, SVG Export Plug-In . SVG Version: 6.00 Build 0)  -->
<svg version="1.1" id="Capa_1" xmlns="http://www.w3.org/2000/svg" xmlns:xlink="http://www.w3.org/1999/xlink" x="0px" y="0px"
	 viewBox="0 0 512 512" style="enable-background:new 0 0 512 512;" xml:space="preserve">
<g>
	<g>
		<path d="M70,206c-5.52,0-10,4.48-10,10s4.48,10,10,10s10-4.48,10-10S75.52,206,70,206z"/>
	</g>
</g>
<g>
	<g>
		<path d="M502,0H10C4.478,0,0,4.477,0,10c0,28.336,0,463.865,0,492c0,5.523,4.478,10,10,10h492c5.522,0,10-4.477,10-10
			c0-26.487,0-453.428,0-492C512,4.477,507.522,0,502,0z M20,20h472v56c0,16.542-13.458,30-30,30c-16.57,0-30-13.429-30-30
			c0-5.523-4.478-10-10-10c-5.522,0-10,4.477-10,10c0,16.542-13.458,30-30,30c-16.57,0-30-13.429-30-30c0-5.523-4.478-10-10-10
			c-5.522,0-10,4.477-10,10c0,16.019-15.919,30-33,30c-16.485,0-33-13.416-33-30c0-5.523-4.478-10-10-10c-5.522,0-10,4.477-10,10
			c0,15.701-15.729,30-33,30c-1.528-0.163-9.59,1.031-18.409-4.252C185.454,96.259,180,86.633,180,76c0-5.523-4.478-10-10-10
			c-5.522,0-10,4.477-10,10c0,10.962-5.98,21.052-15.602,26.328C140.011,104.73,135.031,106,130,106c-16.57,0-30-13.429-30-30
			c0-5.523-4.478-10-10-10c-5.522,0-10,4.477-10,10c0,16.542-13.458,30-30,30c-16.57,0-30-13.429-30-30V20z M266,366h56
			c5.522,0,10-4.477,10-10v-20c0-16.542-13.458-30-30-30h-92c-16.542,0-30,13.458-30,30v20c0,5.523,4.478,10,10,10h56v86H140v-11.15
			c0-55.853-21.555-127.592-59.498-168.36c61.215-24.415,107.184-80.167,117.37-147.987c7.724,1.928,13.32,1.414,15.129,1.496
			c13.161,0,26.465-5.214,36.498-14.306c2.425-2.198,4.589-4.559,6.505-7.044C266.584,118.369,283.09,126,299,126
			c4.883,0,9.757-0.7,14.487-2.053c9.894,67.246,55.279,123.747,117.451,148.545C392.825,313.479,372,385.309,372,440.85V452H266
			V366z M200,346v-10c0-5.514,4.486-10,10-10h92c5.514,0,10,4.486,10,10v10H200z M332.421,114.297
			c3.449-2.675,6.494-5.687,9.096-8.958c3.142,4.315,6.857,8.048,11.326,11.272c4.718,34.102,21.275,65.712,46.954,89.417
			c4.073,3.76,10.399,3.478,14.131-0.564c3.746-4.058,3.493-10.385-0.564-14.131c-19.319-17.834-32.68-40.804-38.551-65.848
			c2.361,0.338,4.76,0.515,7.187,0.515c16.332,0,30.858-7.872,39.989-20.02C431.455,118.558,446.049,126,462,126
			c11.248,0,21.637-3.735,30-10.027v149.769C406.601,261.06,341.008,193.935,332.421,114.297z M20,115.996
			C28.611,122.484,39.035,126,50,126c16.332,0,30.858-7.872,39.989-20.02C99.455,118.558,114.049,126,130,126
			c2.212,0,4.418-0.157,6.603-0.449c-5.878,25.022-19.229,47.967-38.526,65.781c-4.058,3.746-4.311,10.073-0.564,14.131
			c3.741,4.052,10.066,4.316,14.131,0.564c25.558-23.594,42.078-55.027,46.88-88.959c4.451-3.094,8.318-6.856,11.498-11.104
			c2.549,3.412,5.536,6.51,8.905,9.197c-9,79.541-74.481,145.639-158.927,150.545V115.996z M20,285.736
			c13.341-0.694,26.526-2.778,39.371-6.222l3.557,3.557C100.396,320.539,120,390.805,120,440.85V452H80v-11.28
			c0-32.512-7.379-81.83-21.055-109.191c-2.469-4.939-8.473-6.943-13.416-4.474c-4.94,2.469-6.943,8.476-4.475,13.416
			C52.757,363.883,60,410.736,60,440.72V452H20V285.736z M492,492H20v-20h472V492z M492.001,452h-40v-11.28
			c0-31.197,6.877-77.225,18.386-100.25c2.467-4.939,0.465-10.946-4.476-13.415c-4.94-2.47-10.946-0.466-13.416,4.474
			C437.564,361.402,432,414.358,432,440.72V452h-40v-11.15c0-50.324,19.411-120.68,56.512-157.779l3.555-3.555
			c13.027,3.492,26.403,5.582,39.934,6.246V452z"/>
	</g>
</g>
<g>
</g>
<g>
</g>
<g>
</g>
<g>
</g>
<g>
</g>
<g>
</g>
<g>
</g>
<g>
</g>
<g>
</g>
<g>
</g>
<g>
</g>
<g>
</g>
<g>
</g>
<g>
</g>
<g>
</g>
</svg>
