<?xml version="1.0"?>
<svg xmlns="http://www.w3.org/2000/svg" xmlns:xlink="http://www.w3.org/1999/xlink" xmlns:svgjs="http://svgjs.com/svgjs" version="1.1" width="512" height="512" x="0" y="0" viewBox="0 0 74 74" style="enable-background:new 0 0 512 512" xml:space="preserve" class=""><g><path xmlns="http://www.w3.org/2000/svg" d="m64.875 71.978h-55.75a7.133 7.133 0 0 1 -7.125-7.125v-39.518a7.133 7.133 0 0 1 7.125-7.125h55.75a7.133 7.133 0 0 1 7.125 7.125v39.518a7.133 7.133 0 0 1 -7.125 7.125zm-55.75-51.768a5.131 5.131 0 0 0 -5.125 5.125v39.518a5.131 5.131 0 0 0 5.125 5.125h55.75a5.131 5.131 0 0 0 5.125-5.125v-39.518a5.131 5.131 0 0 0 -5.125-5.125z" fill="#c4c2c2" data-original="#000000" style=""/><path xmlns="http://www.w3.org/2000/svg" d="m48.022 65.68h-34.722a4.762 4.762 0 0 1 -4.756-4.756v-31.66a4.761 4.761 0 0 1 4.756-4.756h34.722a4.761 4.761 0 0 1 4.756 4.756v31.66a4.761 4.761 0 0 1 -4.756 4.756zm-34.722-39.172a2.759 2.759 0 0 0 -2.756 2.756v31.66a2.759 2.759 0 0 0 2.756 2.756h34.722a2.759 2.759 0 0 0 2.756-2.756v-31.66a2.759 2.759 0 0 0 -2.756-2.756z" fill="#c4c2c2" data-original="#000000" style=""/><path xmlns="http://www.w3.org/2000/svg" d="m61.229 36.358a5.038 5.038 0 1 1 5.037-5.038 5.044 5.044 0 0 1 -5.037 5.038zm0-8.076a3.038 3.038 0 1 0 3.037 3.038 3.043 3.043 0 0 0 -3.037-3.038z" fill="#c4c2c2" data-original="#000000" style=""/><path xmlns="http://www.w3.org/2000/svg" d="m61.229 48.078a4.438 4.438 0 1 1 4.436-4.437 4.442 4.442 0 0 1 -4.436 4.437zm0-6.875a2.438 2.438 0 1 0 2.436 2.438 2.441 2.441 0 0 0 -2.436-2.441z" fill="#c4c2c2" data-original="#000000" style=""/><path xmlns="http://www.w3.org/2000/svg" d="m56.867 61.923a1 1 0 0 1 -1-1v-3.271a1 1 0 0 1 2 0v3.271a1 1 0 0 1 -1 1z" fill="#c4c2c2" data-original="#000000" style=""/><path xmlns="http://www.w3.org/2000/svg" d="m61.229 61.923a1 1 0 0 1 -1-1v-3.271a1 1 0 0 1 2 0v3.271a1 1 0 0 1 -1 1z" fill="#c4c2c2" data-original="#000000" style=""/><path xmlns="http://www.w3.org/2000/svg" d="m65.589 61.923a1 1 0 0 1 -1-1v-3.271a1 1 0 0 1 2 0v3.271a1 1 0 0 1 -1 1z" fill="#c4c2c2" data-original="#000000" style=""/><path xmlns="http://www.w3.org/2000/svg" d="m37.973 17.377a1 1 0 0 1 -.662-1.749l9.768-8.635a1 1 0 0 1 1.324 1.5l-9.768 8.635a1 1 0 0 1 -.662.249z" fill="#c4c2c2" data-original="#000000" style=""/><path xmlns="http://www.w3.org/2000/svg" d="m28.842 17.261a1 1 0 0 1 -.643-.235l-15.748-13.238a1 1 0 1 1 1.287-1.531l15.748 13.243a1 1 0 0 1 -.644 1.766z" fill="#c4c2c2" data-original="#000000" style=""/><path xmlns="http://www.w3.org/2000/svg" d="m39.066 20.207a1 1 0 0 1 -.994-.9 4.731 4.731 0 0 0 -9.416 0 1 1 0 0 1 -1.99-.194 6.731 6.731 0 0 1 13.4 0 1 1 0 0 1 -.9 1.092.8.8 0 0 1 -.1.002z" fill="#c4c2c2" data-original="#000000" style=""/><path xmlns="http://www.w3.org/2000/svg" d="m30.212 56.41a12.681 12.681 0 0 1 -3.65-.54 12.543 12.543 0 1 1 3.65.54zm-.031-23.245a10.621 10.621 0 1 0 10.181 13.678 10.615 10.615 0 0 0 -7.111-13.224 10.654 10.654 0 0 0 -3.07-.454z" fill="#c4c2c2" data-original="#000000" style=""/><circle xmlns="http://www.w3.org/2000/svg" cx="31.806" cy="37.753" r="1.177" fill="#c4c2c2" data-original="#000000" style=""/><path xmlns="http://www.w3.org/2000/svg" d="m31.8 39.431a1.677 1.677 0 0 1 -.431-3.3 1.677 1.677 0 0 1 1.884 2.46 1.666 1.666 0 0 1 -1.019.781 1.7 1.7 0 0 1 -.434.059zm0-2.355a.655.655 0 0 0 -.176.024.668.668 0 0 0 -.411.315.677.677 0 0 0 1.172.678.684.684 0 0 0 .068-.514.68.68 0 0 0 -.653-.5z" fill="#c4c2c2" data-original="#000000" style=""/><circle xmlns="http://www.w3.org/2000/svg" cx="24.373" cy="41.653" r="1.17" fill="#c4c2c2" data-original="#000000" style=""/><path xmlns="http://www.w3.org/2000/svg" d="m24.37 43.323a1.67 1.67 0 0 1 -.428-3.283 1.669 1.669 0 0 1 1.876 2.449 1.671 1.671 0 0 1 -1.448.834zm0-2.34a.693.693 0 0 0 -.174.023.67.67 0 1 0 .753.983.673.673 0 0 0 .068-.508.674.674 0 0 0 -.647-.5z" fill="#c4c2c2" data-original="#000000" style=""/><circle xmlns="http://www.w3.org/2000/svg" cx="36.607" cy="44.405" r=".89" fill="#c4c2c2" data-original="#000000" style=""/><path xmlns="http://www.w3.org/2000/svg" d="m36.6 45.8a1.39 1.39 0 1 1 1.21-.7 1.384 1.384 0 0 1 -1.21.7zm0-1.78a.39.39 0 1 0 .1.767.386.386 0 0 0 .237-.181.389.389 0 0 0 -.337-.585z" fill="#c4c2c2" data-original="#000000" style=""/><path xmlns="http://www.w3.org/2000/svg" d="m39.679 51.878a41.527 41.527 0 0 1 -11.345-1.9 40.27 40.27 0 0 1 -10.8-4.877c-3.89-2.667-4.258-4.722-3.882-5.976.56-1.863 2.952-2.848 6.916-2.848h.007a1 1 0 0 1 0 2h-.007c-3.159 0-4.787.715-5 1.424-.187.622.512 1.978 3.1 3.75a38.221 38.221 0 0 0 10.25 4.612c8.878 2.667 15.255 2.009 15.744.382.214-.709-.752-2.205-3.39-3.948a1 1 0 1 1 1.1-1.669c3.313 2.188 4.766 4.33 4.2 6.194-.607 2.013-3.3 2.856-6.893 2.856z" fill="#c4c2c2" data-original="#000000" style=""/></g></svg>
