<svg id="fadcf23d-e3a9-4d25-ae6e-958ff1b59730" data-name="Calque 1" xmlns="http://www.w3.org/2000/svg" xmlns:xlink="http://www.w3.org/1999/xlink" viewBox="0 0 141.18 31.83"><defs><style>.b6027315-0189-4512-8b38-aaf4efae537b{fill:url(#b4aa5e9f-6cff-4e89-91f3-42d474b3ba30);}.af8eee40-53dd-40f7-9e92-78ca0bc1faff{fill:url(#f7350d19-374a-48c3-b0e2-af496f1f9697);}.a0ed290a-8622-41fd-b6eb-6a782adaa355{fill:#fff;}.be2ee7cd-cef7-4925-acd7-c1bde63a0244{fill:url(#e7a0746f-8724-40fb-8bef-cd03ef06d2cd);}.b92f47e1-2206-4226-b5f4-e41945eca0f8{fill:url(#ae54c9b1-73c8-4e78-b93d-2164f310c074);}.fb109315-cac0-48ac-9e46-2571d2b2c56a{fill:url(#f767f9ae-a70c-4c77-ae57-a42652a7f621);}.f65bf908-9a6a-4e2a-9b55-447425ca24ab{fill:url(#a15e24d4-c50c-4e06-b219-648449588520);}.b08400b1-4428-4206-bcb1-8a1edb6f4940{fill:url(#fd41268d-12e3-4a3f-a6d1-2101905a15fc);}.fa61a78e-cf93-4d62-83ab-ed3b1b3b8119{fill:url(#feb38d50-8540-45d2-94bf-f839c9d1cfca);}.a42a4e05-c485-43b9-b515-eb4a6f3011ca{fill:#212121;}.f14b6020-d3ec-4af1-b756-7819cbca7a72{fill:url(#a8586100-6187-4dce-926c-e14656e8a238);}.b6e1e1f7-f122-42c8-bb5b-0d3c7e1ebd9a{fill:url(#eaa07144-7ccf-4961-afa3-01ae14cc2325);}.a21af149-ec6b-410a-95aa-6d1e1f41f53c{fill:url(#b7d549e9-04db-4630-bcb7-7af586f0e6ee);}.af1f6447-2264-4aab-b7d2-529f41989e9c{fill:url(#fd9c5ae7-65c9-4006-a567-d8301e923008);}.a078f04c-8922-4656-96d2-f74db79b5681{fill:url(#b6fb4990-ab99-4ec8-b790-2ffaf2581f9f);}.a267e21c-b1cf-47e1-b855-aef520e02f9f{fill:url(#ec80af4e-2b82-4f7d-907b-b23323e6838c);}.f140c9ef-ddc0-4f50-bc6a-a346d75b0087{fill:url(#b601d4d2-2836-45a1-9167-9e5ab8cbc553);}.ae3bb74a-c294-4786-8367-f8a3e689d4d0{fill:url(#a7c8e0fe-15f7-4ce6-a3c0-c560529b4491);}.aef45666-a748-4b46-af6d-fe2ba3af1f80{fill:url(#be8c1dda-c93b-47c4-9e61-266c1ed1d581);}</style><linearGradient id="b4aa5e9f-6cff-4e89-91f3-42d474b3ba30" x1="19.06" y1="12.97" x2="42.02" y2="12.97" gradientUnits="userSpaceOnUse"><stop offset="0" stop-color="#2baae2"/><stop offset="1" stop-color="#2d2e82"/></linearGradient><linearGradient id="f7350d19-374a-48c3-b0e2-af496f1f9697" x1="24.87" y1="8.81" x2="29.3" y2="8.81" xlink:href="#b4aa5e9f-6cff-4e89-91f3-42d474b3ba30"/><linearGradient id="e7a0746f-8724-40fb-8bef-cd03ef06d2cd" x1="0.97" y1="19.37" x2="29.79" y2="19.37" xlink:href="#b4aa5e9f-6cff-4e89-91f3-42d474b3ba30"/><linearGradient id="ae54c9b1-73c8-4e78-b93d-2164f310c074" x1="27.6" y1="23.48" x2="28.77" y2="23.48" xlink:href="#b4aa5e9f-6cff-4e89-91f3-42d474b3ba30"/><linearGradient id="f767f9ae-a70c-4c77-ae57-a42652a7f621" x1="25.31" y1="20.53" x2="28.76" y2="20.53" xlink:href="#b4aa5e9f-6cff-4e89-91f3-42d474b3ba30"/><linearGradient id="a15e24d4-c50c-4e06-b219-648449588520" x1="27.41" y1="18.23" x2="28.73" y2="18.23" xlink:href="#b4aa5e9f-6cff-4e89-91f3-42d474b3ba30"/><linearGradient id="fd41268d-12e3-4a3f-a6d1-2101905a15fc" x1="26.6" y1="16.74" x2="28.74" y2="16.74" xlink:href="#b4aa5e9f-6cff-4e89-91f3-42d474b3ba30"/><linearGradient id="feb38d50-8540-45d2-94bf-f839c9d1cfca" x1="24.9" y1="15.21" x2="28.92" y2="15.21" xlink:href="#b4aa5e9f-6cff-4e89-91f3-42d474b3ba30"/><linearGradient id="a8586100-6187-4dce-926c-e14656e8a238" x1="97.28" y1="23.23" x2="102.09" y2="23.23" xlink:href="#b4aa5e9f-6cff-4e89-91f3-42d474b3ba30"/><linearGradient id="eaa07144-7ccf-4961-afa3-01ae14cc2325" x1="102.8" y1="23.24" x2="106.37" y2="23.24" xlink:href="#b4aa5e9f-6cff-4e89-91f3-42d474b3ba30"/><linearGradient id="b7d549e9-04db-4630-bcb7-7af586f0e6ee" x1="107.37" y1="23.23" x2="111.39" y2="23.23" xlink:href="#b4aa5e9f-6cff-4e89-91f3-42d474b3ba30"/><linearGradient id="fd9c5ae7-65c9-4006-a567-d8301e923008" x1="112.39" y1="23.23" x2="113.01" y2="23.23" xlink:href="#b4aa5e9f-6cff-4e89-91f3-42d474b3ba30"/><linearGradient id="b6fb4990-ab99-4ec8-b790-2ffaf2581f9f" x1="114.01" y1="23.2" x2="117.98" y2="23.2" xlink:href="#b4aa5e9f-6cff-4e89-91f3-42d474b3ba30"/><linearGradient id="ec80af4e-2b82-4f7d-907b-b23323e6838c" x1="118.98" y1="25.22" x2="119.91" y2="25.22" xlink:href="#b4aa5e9f-6cff-4e89-91f3-42d474b3ba30"/><linearGradient id="b601d4d2-2836-45a1-9167-9e5ab8cbc553" x1="120.91" y1="23.22" x2="125.22" y2="23.22" xlink:href="#b4aa5e9f-6cff-4e89-91f3-42d474b3ba30"/><linearGradient id="a7c8e0fe-15f7-4ce6-a3c0-c560529b4491" x1="126.19" y1="23.25" x2="131.3" y2="23.25" xlink:href="#b4aa5e9f-6cff-4e89-91f3-42d474b3ba30"/><linearGradient id="be8c1dda-c93b-47c4-9e61-266c1ed1d581" x1="132.26" y1="23.2" x2="137.1" y2="23.2" xlink:href="#b4aa5e9f-6cff-4e89-91f3-42d474b3ba30"/></defs><title>logo_homs80</title><path class="b6027315-0189-4512-8b38-aaf4efae537b" d="M42,9.06c0-.14-.11-.19-.24-.12a2,2,0,0,0-.25.14c-.1.11-.22.08-.34,0s-.14.12-.21.17a.26.26,0,0,1-.27,0,.76.76,0,0,1-.32.17.39.39,0,0,0-.26.06c-.13.08-.25,0-.38,0h0c-.15,0-.25-.17-.42-.19s-.13-.08-.08-.18L39.35,9c-.06-.09,0-.18,0-.27-.22-.18-.44-.36-.67-.53s-.33-.23-.5-.34A.27.27,0,0,1,38,7.69a1.65,1.65,0,0,0-.58-.88.59.59,0,0,1-.23-.33v0h0V6.39h0a1.63,1.63,0,0,1-.08-.58c0-.16-.19-.24-.3-.35a.14.14,0,0,1-.14-.14v0a2.53,2.53,0,0,0-.58-1,1.44,1.44,0,0,1-.35-.58,1.26,1.26,0,0,0-.26-.21l-.26-.35s0-.08,0-.12.06,0,.08,0,.12,0,.09.11a.24.24,0,0,1,.14.17c.06.17.2.24.36.34a1.49,1.49,0,0,0-.08-.93c-.08,0-.12-.09-.2-.1h-.19c.06-.06.11,0,.16,0a.7.7,0,0,0-.29,0c-.07.06-.15,0-.22,0h0c-.28-.18-.25.16-.38.24a.47.47,0,0,1-.09-.22.09.09,0,0,0-.15-.07.87.87,0,0,1-.59.12.32.32,0,0,1-.27,0h-.13a2.78,2.78,0,0,1-.74-.19s-.06,0-.1,0h0a1.57,1.57,0,0,1-.5-.21c-.28-.16-.59,0-.81.35.05.08,0,.16,0,.24V2.71a.87.87,0,0,1-.1.24c-.06.14-.13.16-.31.08a2,2,0,0,0-.66-.32.43.43,0,0,1-.32-.2.57.57,0,0,0-.58-.3.2.2,0,0,1-.21,0h.09a1.57,1.57,0,0,1-.47-.13c-.1,0-.09,0-.1-.09s-.14-.18-.28-.13h.12a.19.19,0,0,1-.15,0h0c-.06,0-.11-.09,0-.16s.12-.13.19-.19V1h0l.12-.15a.09.09,0,0,0,0-.1s-.07-.06-.11,0-.15,0-.18-.08,0-.11-.13-.07a1.06,1.06,0,0,1-.58.11v0h.13a.14.14,0,0,1-.09,0h-.17a2.05,2.05,0,0,0-.49.06h0s-.14,0-.19-.05h0a.79.79,0,0,1-.48,0,2.27,2.27,0,0,0-1.17.3c-.12.07-.24.19-.35.18a3.59,3.59,0,0,1-.8-.11c-.12,0-.18-.23-.31-.16s-.16.19-.24.29a.14.14,0,0,1-.12.15h0a3.87,3.87,0,0,1-.43.27,1.2,1.2,0,0,0-.68.84,1.28,1.28,0,0,1-.14.34.24.24,0,0,1-.22.21.87.87,0,0,1-.47.25c-.3,0-.42.18-.55.38s-.06.16-.16.17h0a.16.16,0,0,0-.14.08l-.17.26c-.28.33-.53.67-.78,1a1.07,1.07,0,0,0-.14.39c0,.2.12.38.08.58a2.19,2.19,0,0,1,0,.51.11.11,0,0,1,0,.08,2.89,2.89,0,0,1-.3.9.48.48,0,0,0,0,.58c.07,0,0,0,0,.05a0,0,0,0,1,0,0v0l-.06.15a.24.24,0,0,1,0,.26,1.76,1.76,0,0,0,.41.53c.07,0,.1,0,.08.09l.05.08c.08,0,.07.06.07.12a.29.29,0,0,0,.1.09.18.18,0,0,1,.19.2.58.58,0,0,1,.05.14c0,.38.28.58.51.8.07,0,.14,0,.12.1l.37.32a.6.6,0,0,1,.36.32,1,1,0,0,0,.32.2l2.92-5.31a3,3,0,0,1,5.86.49,2.29,2.29,0,0,1,0,.64V23a2.35,2.35,0,0,1-.05.59.3.3,0,0,1,0,.1,2.32,2.32,0,0,0,.33.67c.13.21.13.21-.07.34.05,0,.06.06,0,.1a1.21,1.21,0,0,0,.4.44.2.2,0,0,0,.16.07l1-.19h.35a.25.25,0,0,0,.17,0,1.55,1.55,0,0,1,.42-.12.8.8,0,0,0,.34-.11,3.68,3.68,0,0,0,1.22-1.2c0-.06,0-.14.11-.12a1.17,1.17,0,0,0,.54-1,.21.21,0,0,1,0-.19l0,0a.24.24,0,0,1,.18-.18l.59-.29a.4.4,0,0,0,.23-.4c-.06-.09,0-.19,0-.27a.67.67,0,0,1,0-.31.13.13,0,0,0,0-.12.52.52,0,0,1,.06-.67c.21-.15.41-.32.63-.46s.54-.29.8-.46.42-.26.44-.55h0s0-.08,0-.15v.1a.31.31,0,0,0,0-.19c-.06-.07,0-.16,0-.25V17.16a.36.36,0,0,0-.06-.2,1.13,1.13,0,0,1-.25-.53c-.12,0-.06-.13-.07-.2a1,1,0,0,1,0-.28.84.84,0,0,0-.07-.35s-.05,0-.05,0a1.1,1.1,0,0,1,0-.51.77.77,0,0,0,.41-.59.28.28,0,0,1,.08-.11,1.44,1.44,0,0,0,.27-.28c0-.06,0-.13.1-.11l.45-.54c0-.07,0-.14.1-.11l.24-.25c0-.11.07-.13.15-.13a3.8,3.8,0,0,0,.47-.42.27.27,0,0,1,.2-.21,3,3,0,0,0,.49-.63,13.66,13.66,0,0,0,.9-1.94A1.07,1.07,0,0,0,42,9.06ZM19.58,6.17a.28.28,0,0,1,0-.18A.19.19,0,0,1,19.58,6.17Z" transform="translate(-0.97 -0.58)"/><path class="af8eee40-53dd-40f7-9e92-78ca0bc1faff" d="M27.09,11h0A2.22,2.22,0,0,0,29.3,8.84V8.63a2.23,2.23,0,0,0-2-2h-.63l-.27.07-.11,0-.21.1-.15.08-.14.1-.15.11-.13.13-.11.12a.64.64,0,0,0-.1.13,1.22,1.22,0,0,0-.12.19.75.75,0,0,0-.07.12A1.33,1.33,0,0,0,25,8a.56.56,0,0,0,0,.12,2.2,2.2,0,0,0,1.47,2.75,2.37,2.37,0,0,0,.65.09Z" transform="translate(-0.97 -0.58)"/><path class="a0ed290a-8622-41fd-b6eb-6a782adaa355" d="M27.09,12.66a2.4,2.4,0,0,0-2.22,2.53v7.59a2.4,2.4,0,0,0,2.22,2.53,2.39,2.39,0,0,0,2.21-2.53V15.19A2.39,2.39,0,0,0,27.09,12.66Z" transform="translate(-0.97 -0.58)"/><path class="be2ee7cd-cef7-4925-acd7-c1bde63a0244" d="M29.66,9.63a2.73,2.73,0,0,1-1,1.37,2.67,2.67,0,0,1-1.55.49h0a2.71,2.71,0,0,1-2.24-1.16,2.67,2.67,0,0,1-.47-1.52V8.76l-.11,0h-.12l-1.14,2-.15.27L21.8,12.94l-3.46,6.28-.19-9.4A2.34,2.34,0,0,0,18,9.08,2.69,2.69,0,0,0,13,7.7L1.31,28.43A2.69,2.69,0,0,0,6,31l6.61-11.53.21,9.82a2.7,2.7,0,0,0,1.62,2.4h0a2.7,2.7,0,0,0,3.66-1.06l6.18-11.2v3.73a2.71,2.71,0,0,0,2.71,2.69h0a2.7,2.7,0,0,0,2.64-2.19,2.92,2.92,0,0,0,.05-.5V9.61ZM29.3,22.81a2.39,2.39,0,0,1-2.21,2.53,2.4,2.4,0,0,1-2.22-2.53V15.22a2.41,2.41,0,0,1,2.22-2.54,2.4,2.4,0,0,1,2.21,2.54Z" transform="translate(-0.97 -0.58)"/><path class="b92f47e1-2206-4226-b5f4-e41945eca0f8" d="M28.71,22.5a.11.11,0,0,1,.06.09s-.07.12-.2.23-.2.19-.2.25a3.55,3.55,0,0,0,.17.45,1.75,1.75,0,0,1,.17.58.33.33,0,0,1-.1.23c-.07.09-.13.13-.19.13s-.32-.16-.53-.5a1.65,1.65,0,0,1-.29-.71.28.28,0,0,1,.12-.19h.09a.11.11,0,0,1,.06.09v.07a.11.11,0,0,0,0,.08,1.17,1.17,0,0,0,.17.38,2.92,2.92,0,0,0,.24.37.32.32,0,0,0,.18.12.24.24,0,0,0,.07-.17,1.68,1.68,0,0,0-.17-.49,2.14,2.14,0,0,1-.18-.54.27.27,0,0,1,.07-.2l.19-.1a1.19,1.19,0,0,0,.23-.16Z" transform="translate(-0.97 -0.58)"/><path class="fb109315-cac0-48ac-9e46-2571d2b2c56a" d="M26,18.7a1.22,1.22,0,0,0-.51,1,1.16,1.16,0,0,0,.11.48,1,1,0,0,0,.28.4,2.66,2.66,0,0,0,.59.28,2.1,2.1,0,0,0,.61.15h.27l.27,0a.19.19,0,0,0,.07-.13.17.17,0,0,0,0-.1V19.32a.14.14,0,0,0,.06.1h.06l0,.77a1.39,1.39,0,0,0,.2.71,3.33,3.33,0,0,0,.58-.26h.12a.11.11,0,0,1,0,.07s-.12.15-.37.29-.37.23-.37.28a1.27,1.27,0,0,0,.05.34,2.29,2.29,0,0,0,.08.28.9.9,0,0,1,.08.23.35.35,0,0,1-.14.25.14.14,0,0,1-.14-.09,3.33,3.33,0,0,1-.18-.95l-.06-.06a3.87,3.87,0,0,1-.48,0A2.39,2.39,0,0,1,25.9,21a1.31,1.31,0,0,1-.58-1.17,1.8,1.8,0,0,1,.14-.68c.13-.27.29-.41.49-.41C25.85,18.67,25.89,18.68,26,18.7Z" transform="translate(-0.97 -0.58)"/><path class="f65bf908-9a6a-4e2a-9b55-447425ca24ab" d="M27.65,17.33l.05.06a1.09,1.09,0,0,0-.06.36v.53a1.09,1.09,0,0,0,.05.26.48.48,0,0,0,.42.27,1,1,0,0,0,.33.05h.26a.83.83,0,0,1,0,.22l-.15.06h-.25a1.31,1.31,0,0,1-.38-.09L27.73,19a.41.41,0,0,1-.17-.15,1.58,1.58,0,0,1-.14-.77c0-.38,0-.59.14-.67Z" transform="translate(-0.97 -0.58)"/><path class="b08400b1-4428-4206-bcb1-8a1edb6f4940" d="M26.72,16.53c.06,0,.13,0,.2.17a.79.79,0,0,1-.17.2c-.1,0-.15-.09-.15-.14a.46.46,0,0,1,.12-.23Zm2,.22a.49.49,0,0,1,.06.17.67.67,0,0,1-.24,0c-.52,0-.8-.07-.83-.2a.1.1,0,0,1,.11-.07h0a4.86,4.86,0,0,1,.54,0,2.15,2.15,0,0,0,.36,0Z" transform="translate(-0.97 -0.58)"/><path class="fa61a78e-cf93-4d62-83ab-ed3b1b3b8119" d="M28.84,14.45a.37.37,0,0,1,.08.18.48.48,0,0,1-.12.22l-.17.22-.21.18a2.35,2.35,0,0,0,.18.47c0,.11.08.21.11.32v0a.15.15,0,0,1-.14.17h0A3.07,3.07,0,0,1,28,16.2l-.58-.08c-.36-.05-.73-.09-1.14-.11l-1-.07H25s-.08,0-.12-.09a.17.17,0,0,1,.15-.12h.59c.18,0,.71,0,1.57.12h.42l.28.05.26,0,.22,0v-.07a3.65,3.65,0,0,1-.14-.35,5.24,5.24,0,0,0-.3-.78l-.17-.36v-.09s.1-.08.22-.09a1.58,1.58,0,0,1,.16.35.79.79,0,0,0,.2.31.64.64,0,0,0,.32-.49A.29.29,0,0,1,28.84,14.45Z" transform="translate(-0.97 -0.58)"/><path class="a42a4e05-c485-43b9-b515-eb4a6f3011ca" d="M57.3,19.06a1,1,0,0,1-.95-.95V8l-4.68,6.41a.93.93,0,0,1-.77.38,1,1,0,0,1-.78-.38L45.44,8V18.11a1,1,0,0,1-.95.95,1,1,0,0,1-1-.95v-13a1,1,0,0,1,1.73-.58l5.63,7.73,5.64-7.73a1,1,0,0,1,1.06-.34,1,1,0,0,1,.65.92V18.11A1,1,0,0,1,57.3,19.06Z" transform="translate(-0.97 -0.58)"/><path class="a42a4e05-c485-43b9-b515-eb4a6f3011ca" d="M62.25,19.14a1,1,0,0,1-1-1v-13a1,1,0,0,1,1-1,1,1,0,0,1,1,1V18.18A1,1,0,0,1,62.25,19.14Z" transform="translate(-0.97 -0.58)"/><path class="a42a4e05-c485-43b9-b515-eb4a6f3011ca" d="M67.1,19.14a1,1,0,0,1-.57-.19,1,1,0,0,1-.28-1.18L72.58,4.71a1,1,0,0,1,.86-.53,1,1,0,0,1,.86.53l6.37,13a1,1,0,0,1-1.71.83l-1.49-3.06a6.78,6.78,0,0,0-3.15-.11,11.44,11.44,0,0,0-3.26,1.16,16.66,16.66,0,0,0-3.31,2.3A1,1,0,0,1,67.1,19.14ZM73.44,7.3l-3.82,7.9.53-.29A13.33,13.33,0,0,1,74,13.54a9.11,9.11,0,0,1,2.48-.13Z" transform="translate(-0.97 -0.58)"/><path class="a42a4e05-c485-43b9-b515-eb4a6f3011ca" d="M94.93,15.33a5.09,5.09,0,0,1-.57,1.92,3.57,3.57,0,0,1-1.18,1.2,4.79,4.79,0,0,1-2.59.67H83.91a1,1,0,0,1-.66-.27,1,1,0,0,1-.29-.68v-13a1,1,0,0,1,1-1h5.81a5.28,5.28,0,0,1,2.36.46,3.54,3.54,0,0,1,2,3A4.87,4.87,0,0,1,94,9.53a3.87,3.87,0,0,1-.71,1.4l-.19.21a4.15,4.15,0,0,1,.76.59,3.9,3.9,0,0,1,.9,1.51A5.59,5.59,0,0,1,94.93,15.33Zm-2.44-2.26a2.56,2.56,0,0,0-1.31-.63,3.39,3.39,0,0,0-.76-.06h-.06l-3.16,0h0a1,1,0,0,1-1-1,1,1,0,0,1,1-.95l3.13,0a2.47,2.47,0,0,0,1.5-.76,2.58,2.58,0,0,0,.38-1.89C92,6.6,91.33,6.08,89.72,6.08H84.86V17.21h5.73a2.91,2.91,0,0,0,1.58-.38A2,2,0,0,0,93,15.16,2.54,2.54,0,0,0,92.49,13.07Z" transform="translate(-0.97 -0.58)"/><path class="a42a4e05-c485-43b9-b515-eb4a6f3011ca" d="M98.85,19.14A.95.95,0,0,1,98,17.77l6.33-13.06a1,1,0,0,1,.86-.53,1,1,0,0,1,.86.53l6.37,13a1,1,0,0,1-1.71.83l-1.49-3.06a6.79,6.79,0,0,0-3.15-.11,11.34,11.34,0,0,0-3.26,1.16,16.66,16.66,0,0,0-3.31,2.3A1,1,0,0,1,98.85,19.14ZM105.19,7.3l-3.82,7.9.53-.29a13.33,13.33,0,0,1,3.8-1.37,9.11,9.11,0,0,1,2.48-.13Z" transform="translate(-0.97 -0.58)"/><path class="a42a4e05-c485-43b9-b515-eb4a6f3011ca" d="M115.66,19.14a1,1,0,0,1-1-1v-13a.94.94,0,0,1,1-1h5.65a4.86,4.86,0,0,1,3.26,1.33,4.26,4.26,0,0,1,1,1.52,5.92,5.92,0,0,1,.38,2.21,4.37,4.37,0,0,1-2.19,4,5.05,5.05,0,0,1-1.14.47,10.15,10.15,0,0,1,2.15,2.65c.49.84,1,.84,1.1.84a1,1,0,0,1,1.07.79,1,1,0,0,1-.8,1.09A2.64,2.64,0,0,1,125,19a3.5,3.5,0,0,1-1.85-1.64,7.65,7.65,0,0,0-2.44-2.65,4.13,4.13,0,0,0-1.19-.57.93.93,0,0,1-.77-1,.94.94,0,0,1,1-.86,6.46,6.46,0,0,0,3.14-.63A2.42,2.42,0,0,0,124,9.24a3.66,3.66,0,0,0-.42-1.88,2.37,2.37,0,0,0-.87-.88,3.25,3.25,0,0,0-1.43-.4h-4.7v12.1A1,1,0,0,1,115.66,19.14Z" transform="translate(-0.97 -0.58)"/><path class="a42a4e05-c485-43b9-b515-eb4a6f3011ca" d="M142.15,5.13a.94.94,0,0,1-1,1H137v12.1a1,1,0,1,1-1.9,0V6.08H131a1,1,0,1,1,0-1.9H141.2A.94.94,0,0,1,142.15,5.13Z" transform="translate(-0.97 -0.58)"/><path class="f14b6020-d3ec-4af1-b756-7819cbca7a72" d="M97.6,25.69a.31.31,0,0,1-.19-.06.32.32,0,0,1-.1-.39L99.4,21a.31.31,0,0,1,.56,0l2.1,4.28a.32.32,0,0,1-.57.28l-.48-1a2.27,2.27,0,0,0-1,0,3.73,3.73,0,0,0-1.07.38,5.55,5.55,0,0,0-1.09.76A.3.3,0,0,1,97.6,25.69Zm2.08-3.89-1.26,2.59.18-.09a4,4,0,0,1,1.25-.45,2.79,2.79,0,0,1,.81,0Z" transform="translate(-0.97 -0.58)"/><path class="b6e1e1f7-f122-42c8-bb5b-0d3c7e1ebd9a" d="M106.37,21.09a.31.31,0,0,1-.31.31h-2.63V23h2.25a.33.33,0,0,1,.31.32.32.32,0,0,1-.31.31h-2.25v1.79a.32.32,0,0,1-.63,0v-4.3a.31.31,0,0,1,.32-.31h2.94A.31.31,0,0,1,106.37,21.09Z" transform="translate(-0.97 -0.58)"/><path class="a21af149-ec6b-410a-95aa-6d1e1f41f53c" d="M107.68,25.69a.31.31,0,0,1-.31-.31v-4.3a.31.31,0,0,1,.31-.31h1.86a1.58,1.58,0,0,1,.37.05,1.56,1.56,0,0,1,.7.39,1.38,1.38,0,0,1,.32.5,1.86,1.86,0,0,1,.13.73,1.43,1.43,0,0,1-.72,1.31,1.89,1.89,0,0,1-.38.16,3.07,3.07,0,0,1,.71.87c.16.27.34.27.36.27a.31.31,0,0,1,.35.26.32.32,0,0,1-.26.36.83.83,0,0,1-.38,0,1.21,1.21,0,0,1-.61-.54,2.51,2.51,0,0,0-.8-.87,1.19,1.19,0,0,0-.39-.19.3.3,0,0,1-.25-.34.31.31,0,0,1,.31-.28,2.21,2.21,0,0,0,1-.2.8.8,0,0,0,.4-.77,1.27,1.27,0,0,0-.13-.62.81.81,0,0,0-.29-.29,1,1,0,0,0-.47-.13H108v4A.31.31,0,0,1,107.68,25.69Z" transform="translate(-0.97 -0.58)"/><path class="af1f6447-2264-4aab-b7d2-529f41989e9c" d="M112.7,25.69a.31.31,0,0,1-.31-.31v-4.3a.32.32,0,0,1,.31-.31.31.31,0,0,1,.31.31v4.3A.31.31,0,0,1,112.7,25.69Z" transform="translate(-0.97 -0.58)"/><path class="a078f04c-8922-4656-96d2-f74db79b5681" d="M114.33,25.66a.31.31,0,0,1-.32-.31V21.06a.32.32,0,0,1,.63,0v4.29A.31.31,0,0,1,114.33,25.66Zm3.29,0a.94.94,0,0,1-.28-.06,1.14,1.14,0,0,1-.59-.53A5,5,0,0,0,115,23.46a.33.33,0,0,1-.15-.24.29.29,0,0,1,.09-.26l2.22-2.13a.33.33,0,0,1,.45,0,.3.3,0,0,1,0,.43l-1.92,1.85a5.33,5.33,0,0,1,1.63,1.63c.16.26.31.27.32.27a.32.32,0,0,1,.35.26.31.31,0,0,1-.25.36Z" transform="translate(-0.97 -0.58)"/><path class="a267e21c-b1cf-47e1-b855-aef520e02f9f" d="M119.91,25.22a.47.47,0,1,1-.46-.47A.47.47,0,0,1,119.91,25.22Z" transform="translate(-0.97 -0.58)"/><path class="f140c9ef-ddc0-4f50-bc6a-a346d75b0087" d="M123.48,25.77a2.5,2.5,0,0,1-1-.21,2.59,2.59,0,0,1-.81-.55,2.52,2.52,0,0,1-.75-1.79,2.54,2.54,0,0,1,.2-1,2.64,2.64,0,0,1,1.38-1.36,2.66,2.66,0,0,1,1-.2,2.51,2.51,0,0,1,1.53.51.32.32,0,0,1,.06.44.31.31,0,0,1-.44.06,1.87,1.87,0,0,0-1.15-.38,1.93,1.93,0,0,0-1.8,1.18,1.69,1.69,0,0,0-.15.74,1.75,1.75,0,0,0,.15.74,1.93,1.93,0,0,0,1.79,1.18,2.08,2.08,0,0,0,.66-.11,2,2,0,0,0,.57-.33.31.31,0,1,1,.4.48,2.81,2.81,0,0,1-.75.43A2.63,2.63,0,0,1,123.48,25.77Z" transform="translate(-0.97 -0.58)"/><path class="ae3bb74a-c294-4786-8367-f8a3e689d4d0" d="M128.76,25.8a2.46,2.46,0,0,1-1-.21,2.42,2.42,0,0,1-.82-.55,2.69,2.69,0,0,1-.55-.82,2.36,2.36,0,0,1-.2-1,2.43,2.43,0,0,1,.2-1,2.46,2.46,0,0,1,.56-.8,2.56,2.56,0,0,1,3.62,0,2.42,2.42,0,0,1,.53.81,2.53,2.53,0,0,1,.2,1,2.45,2.45,0,0,1-.2,1,2.37,2.37,0,0,1-.53.82A2.53,2.53,0,0,1,128.76,25.8Zm0-4.48a2,2,0,0,0-.77.15,2,2,0,0,0-.62.42,1.8,1.8,0,0,0-.42.61,1.76,1.76,0,0,0-.16.74A1.88,1.88,0,0,0,127,24a1.85,1.85,0,0,0,.42.61,2,2,0,0,0,1.38.58,1.91,1.91,0,0,0,1.36-.57,1.82,1.82,0,0,0,.41-.61,2.12,2.12,0,0,0,.14-.75,1.92,1.92,0,0,0-.54-1.35A1.87,1.87,0,0,0,128.78,21.32Z" transform="translate(-0.97 -0.58)"/><path class="aef45666-a748-4b46-af6d-fe2ba3af1f80" d="M136.79,25.66a.32.32,0,0,1-.32-.31V22l-1.54,2.1a.28.28,0,0,1-.25.13.29.29,0,0,1-.25-.13L132.89,22v3.33a.31.31,0,0,1-.31.31.32.32,0,0,1-.32-.31V21.06a.32.32,0,0,1,.57-.19l1.85,2.54,1.86-2.54a.31.31,0,0,1,.35-.11.32.32,0,0,1,.21.3v4.29A.31.31,0,0,1,136.79,25.66Z" transform="translate(-0.97 -0.58)"/></svg>